<svg version="1.1" id="LogoSVG"
    xmlns="http://www.w3.org/2000/svg"
    xmlns:xlink="http://www.w3.org/1999/xlink" x="0px" y="0px" viewBox="0 0 484.37 149.09" xml:space="preserve" style="">
    <defs>
        <style>.cls-1{fill:#fff;}</style>
    </defs>
    <g id="Layer_2" data-name="Layer 2">
        <g id="Layer_1-2" data-name="Layer 1">
            <g id="Group_12" data-name="Group 12">
                <path id="Path_25" data-name="Path 25" class="cls-1" d="M109.74,36.33H88.54V72.66h21.2Z"/>
                <path id="Path_26" data-name="Path 26" class="cls-1" d="M109.74,76.44H88.54v36.33h21.2Z"/>
                <path id="Path_28" data-name="Path 28" class="cls-1" d="M313.33,72.66h21.19V36.33H313.33Z"/>
                <path id="Path_29" data-name="Path 29" class="cls-1" d="M313.33,112.77h21.19V76.44H313.33Z"/>
                <path id="Path_27" data-name="Path 27" class="cls-1" d="M264.89,112.77h21.19V76.44H264.89Z"/>
                <path id="Path_30" data-name="Path 30" class="cls-1" d="M352.68,112.77h21.2V76.44h-21.2Z"/>
                <path id="Path_32" data-name="Path 32" class="cls-1" d="M463.17,112.77h21.2V76.44h-21.2Z"/>
                <path id="Path_31" data-name="Path 31" class="cls-1" d="M407.92,112.77h21.2V76.44h-21.2Z"/>
                <path id="Path_33" data-name="Path 33" class="cls-1" d="M352.68,72.66h21.19A15.14,15.14,0,0,1,389,57.52V36.33a36.32,36.32,0,0,0-36.32,36.32h0"/>
                <path id="Path_34" data-name="Path 34" class="cls-1" d="M392.79,36.33V57.52a15.14,15.14,0,0,1,15.14,15.14h21.19a15.15,15.15,0,0,1,15.13-15.14V36.33A36.24,36.24,0,0,0,418.52,47a36.22,36.22,0,0,0-25.73-10.68"/>
                <path id="Path_35" data-name="Path 35" class="cls-1" d="M484.36,72.66A36.32,36.32,0,0,0,448,36.33h0V57.52a15.14,15.14,0,0,1,15.14,15.14Z"/>
                <path id="Path_36" data-name="Path 36" class="cls-1" d="M323.92,0A12.11,12.11,0,1,0,336,12.11,12.11,12.11,0,0,0,323.92,0h0"/>
                <path id="Path_37" data-name="Path 37" class="cls-1" d="M264.89,72.66h21.19a15.14,15.14,0,0,1,15.14-15.14V36.33a36.32,36.32,0,0,0-36.33,36.32h0"/>
                <path id="Path_38" data-name="Path 38" class="cls-1" d="M216.45,36.33V57.52a15.14,15.14,0,0,1,15.14,15.14h21.19a36.32,36.32,0,0,0-36.33-36.33h0"/>
                <path id="Path_39" data-name="Path 39" class="cls-1" d="M216.45,91.58v21.19a36.34,36.34,0,0,0,36.33-36.33h-21.2a15.14,15.14,0,0,1-15.13,15.14"/>
                <path id="Path_40" data-name="Path 40" class="cls-1" d="M197.54,76.44h-21.2v54.49h21.2V109.46a36.24,36.24,0,0,0,15.13,3.31V91.57a15.12,15.12,0,0,1-15.13-15.13"/>
                <path id="Path_41" data-name="Path 41" class="cls-1" d="M176.34,72.66h21.2a15.13,15.13,0,0,1,15.13-15.14V36.33a36.33,36.33,0,0,0-36.33,36.32h0"/>
                <path id="Path_42" data-name="Path 42" class="cls-1" d="M124.88,36.33V72.66h21.19V57.52H161.2V36.33Z"/>
                <path id="Path_43" data-name="Path 43" class="cls-1" d="M146.06,76.44H124.87a36.34,36.34,0,0,0,36.33,36.33h0V91.57a15.14,15.14,0,0,1-15.14-15.13"/>
                <path id="Path_44" data-name="Path 44" class="cls-1" d="M99.15,124.88A12.11,12.11,0,1,0,111.26,137a12.11,12.11,0,0,0-12.11-12.11h0"/>
                <path id="Path_45" data-name="Path 45" class="cls-1" d="M40.11,91.58v21.19A36.34,36.34,0,0,0,76.44,76.44H55.25A15.15,15.15,0,0,1,40.11,91.58"/>
                <path id="Path_46" data-name="Path 46" class="cls-1" d="M40.11,36.33V57.52A15.14,15.14,0,0,1,55.25,72.66H76.44A36.32,36.32,0,0,0,40.11,36.33h0"/>
                <path id="Path_47" data-name="Path 47" class="cls-1" d="M21.19,76.44H0a36.33,36.33,0,0,0,36.33,36.33h0V91.57A15.14,15.14,0,0,1,21.19,76.44"/>
                <path id="Path_48" data-name="Path 48" class="cls-1" d="M21.19,18.17,0,24.22V72.66H21.19A15.15,15.15,0,0,1,36.33,57.52V36.33a36.15,36.15,0,0,0-15.14,3.3Z"/>
            </g>
        </g>
    </g>
    <style>
        @keyframes fade {
          0% { fill-opacity:0;} 100% {fill-opacity:1;}
        }
        path {
          fill-opacity: 0;
        }
        #Path_25 {
          fill-opacity: 0;
          animation: fade 500ms ease 400ms forwards;
        }
        #Path_26 {
          fill-opacity: 0;
          animation: fade 500ms ease 600ms forwards;
        }
        #Path_27 {
          fill-opacity: 0;
          animation: fade 500ms ease 200ms forwards;
        }
        #Path_28 {
          fill-opacity: 0;
          animation: fade 500ms ease 800ms forwards;
        }
        #Path_29 {
          fill-opacity: 0;
          animation: fade 500ms ease 1000ms forwards;
        }
        #Path_30 {
          fill-opacity: 0;
          animation: fade 500ms ease 1400ms forwards;
        }
        #Path_31 {
          fill-opacity: 0;
          animation: fade 500ms ease 1200ms forwards;
        }
        #Path_32 {
          fill-opacity: 0;
          animation: fade 500ms ease 1600ms forwards;
        }
        #Path_33 {
          fill-opacity: 0;
          animation: fade 500ms ease 200ms forwards;
        }
        #Path_34 {
          fill-opacity: 0;
          animation: fade 500ms ease 2000ms forwards;
        }
        #Path_35 {
          fill-opacity: 0;
          animation: fade 500ms ease 1500ms forwards;
        }
        #Path_36 {
          fill-opacity: 0;
          animation: fade 500ms ease 2700ms forwards;
        }
        #Path_37 {
          fill-opacity: 0;
          animation: fade 500ms ease 2500ms forwards;
        }
        #Path_38 {
          fill-opacity: 0;
          animation: fade 500ms ease 1600ms forwards;
        }
        #Path_39 {
          fill-opacity: 0;
          animation: fade 500ms ease 1100ms forwards;
        }
        #Path_40 {
          fill-opacity: 0;
          animation: fade 500ms ease 800ms forwards;
        }
        #Path_41 {
          fill-opacity: 0;
          animation: fade 500ms ease 2800ms forwards;
        }
        #Path_42 {
          fill-opacity: 0;
          animation: fade 500ms ease 1650ms forwards;
        }
        #Path_43 {
          fill-opacity: 0;
          animation: fade 500ms ease 2300ms forwards;
        }
        #Path_44 {
          fill-opacity: 0;
          animation: fade 500ms ease 2500ms forwards;
        }
        #Path_45 {
          fill-opacity: 0;
          animation: fade 500ms ease 900ms forwards;
        }
        #Path_46 {
          fill-opacity: 0;
          animation: fade 500ms ease 1700ms forwards;
        }
        #Path_47 {
          fill-opacity: 0;
          animation: fade 500ms ease 600ms forwards;
        }
        #Path_48 {
          fill-opacity: 0;
          animation: fade 500ms ease 2700ms forwards;
        }

    </style>
</svg>
