<svg xmlns="http://www.w3.org/2000/svg" viewBox="0 0 391.44 243.27"><defs><style>.cls-1{fill:#fff;}</style></defs><title>Asset 1</title><g id="Layer_2" data-name="Layer 2"><g id="Layer_1-2" data-name="Layer 1"><path class="cls-1" d="M229.63,13.66a5.53,5.53,0,1,1-5.53,5.52A5.53,5.53,0,0,1,229.63,13.66Zm-75,2.2H213a3.33,3.33,0,0,1,0,6.65H154.67a3.33,3.33,0,0,1,0-6.65ZM12.36,243.27V73.53A61.25,61.25,0,0,1,73.53,12.35H99.4V25a13.51,13.51,0,0,0,13.47,13.47H271.34A13.51,13.51,0,0,0,284.81,25V12.35h27.76a61.26,61.26,0,0,1,61.18,61.18V243.27H386.1V230.33h2.65a2.7,2.7,0,0,0,2.69-2.7V153.14a2.7,2.7,0,0,0-2.69-2.7H386.1V73.54A73.61,73.61,0,0,0,312.57,0h-239A73.62,73.62,0,0,0,0,73.54V243.27Z"/></g></g></svg>