<svg xmlns="http://www.w3.org/2000/svg" viewBox="0 0 118.6 119.05"><defs><style>.cls-1{fill:#f15a22;}.cls-2{fill:#778592;}</style></defs><title>Asset 1</title><g id="Layer_2" data-name="Layer 2"><g id="Layer_1-2" data-name="Layer 1"><path class="cls-1" d="M78.08,60.49l18-13.34H109a9.66,9.66,0,0,0,9.65-9.64V9.65A9.67,9.67,0,0,0,109,0H70.36a9.65,9.65,0,0,0-9.64,9.65V37.51a9.65,9.65,0,0,0,9.64,9.64h7.72V60.49Zm36.66-23A5.79,5.79,0,0,1,109,43.3H95.44a1.91,1.91,0,0,0-1.15.38L81.94,52.94V45.23A1.93,1.93,0,0,0,80,43.3H70.36a5.79,5.79,0,0,1-5.79-5.79V9.65a5.79,5.79,0,0,1,5.79-5.79H109a5.79,5.79,0,0,1,5.79,5.79V37.51Z"/><path class="cls-2" d="M98.4,65H82.12a5.78,5.78,0,0,0-5.62,4.38l-1.18,4.73L73,81.85l-1.31,4.37L69.44,75.71A13.56,13.56,0,0,0,56.24,65H44.38V56.26a17.37,17.37,0,0,0,7.71-14.38V30.31A17.39,17.39,0,0,0,34.73,12.94H17.36a1.94,1.94,0,0,0-1.93,1.93A11.57,11.57,0,0,0,19,23.13a17.45,17.45,0,0,0-1.6,7.18V41.88a17.4,17.4,0,0,0,7.72,14.38V65H13.51A13.52,13.52,0,0,0,0,78.54v40.51H57.88V95.19l1.87,7a12.3,12.3,0,0,0,23.54.72L89.93,83l2.18-6.54A9.63,9.63,0,0,0,100.32,67,1.92,1.92,0,0,0,98.4,65ZM46.84,68.89l-4.39,7.69-4.39-7.69ZM36.66,74.23l3.56,6.24-3.56,6.24ZM28.94,65v-6.8h0c.36.13.73.24,1.1.34l.26.08a16.86,16.86,0,0,0,1.85.38l.69.08a14.13,14.13,0,0,0,1.46.1c.14,0,.28,0,.43,0s.28,0,.43,0c.48,0,1,0,1.46-.1l.69-.08a16.82,16.82,0,0,0,1.85-.37l.26-.08c.37-.1.74-.21,1.1-.34V65H28.94ZM34.73,16.8A13.53,13.53,0,0,1,47.88,27.22l-4.07-4.07a1.93,1.93,0,0,0-1.37-.56H27a7.8,7.8,0,0,1-7.47-5.79ZM21.22,41.88V30.31a13.27,13.27,0,0,1,1-4.94c.4.18.81.35,1.22.49l.24.06a10.23,10.23,0,0,0,1.35.33l.42.07a12.48,12.48,0,0,0,1.61.13H41.65L48.23,33v8.84a13.51,13.51,0,1,1-27,0Zm5.79,27H31.4L27,76.58l-4.39-7.69Zm5.79,5.34V86.71l-3.57-6.24Zm1.93,23L51.28,68.89h5a9.7,9.7,0,0,1,9.43,7.63L69.5,94.38a1.92,1.92,0,0,0,1.81,1.52,1.87,1.87,0,0,0,1.93-1.37l3.05-10.2h9.14l-5.79,17.38a8.44,8.44,0,0,1-16.16-.49L57.81,80a1.93,1.93,0,0,0-3.79.5V115.2H15.43V86.26H11.58V115.2H3.86V78.54a9.66,9.66,0,0,1,9.65-9.65h4.67L34.73,97.21Zm52-16.74H77.46l1.15-3.86H88Zm4-7.72h-11l.6-2.39a2,2,0,0,1,1.88-1.47h14A5.8,5.8,0,0,1,90.68,72.75Z"/><rect class="cls-2" x="25.08" y="34.17" width="3.86" height="3.86"/><rect class="cls-2" x="40.52" y="34.17" width="3.86" height="3.86"/><rect class="cls-2" x="32.8" y="34.17" width="3.86" height="9.65"/><path class="cls-1" d="M103,25.6V21.76H99a9.51,9.51,0,0,0-1.41-3.37l2.86-2.86-2.71-2.72-2.87,2.86a9.62,9.62,0,0,0-3.36-1.4v-4H87.68v4a9.75,9.75,0,0,0-3.37,1.4l-2.86-2.86-2.71,2.72,2.86,2.86a9.51,9.51,0,0,0-1.41,3.37h-4V25.6h4A9.46,9.46,0,0,0,81.6,29l-2.86,2.86,2.71,2.72,2.86-2.86a9.56,9.56,0,0,0,3.37,1.4v4h3.84v-4a9.44,9.44,0,0,0,3.36-1.4l2.87,2.86,2.71-2.72L97.6,29A9.46,9.46,0,0,0,99,25.6ZM89.6,29.44a5.76,5.76,0,1,1,5.76-5.76A5.77,5.77,0,0,1,89.6,29.44Z"/></g></g></svg>