<?xml version="1.0" standalone="no"?>
<!DOCTYPE svg PUBLIC "-//W3C//DTD SVG 1.1//EN" "http://www.w3.org/Graphics/SVG/1.1/DTD/svg11.dtd" >
<svg xmlns="http://www.w3.org/2000/svg">
<metadata>Generated by IcoMoon</metadata>
<defs>
<font id="bitprim-icons" horiz-adv-x="512">
<font-face units-per-em="512" ascent="480" descent="-32" />
<missing-glyph horiz-adv-x="512" />
<glyph unicode="&#x20;" horiz-adv-x="256" d="" />
<glyph unicode="&#xe900;" glyph-name="bitprimlogo" horiz-adv-x="1167" d="M796.364 433.507c0-15.188-12.312-27.5-27.5-27.5s-27.5 12.312-27.5 27.5c0 15.188 12.312 27.5 27.5 27.5s27.5-12.312 27.5-27.5zM124.376 378.518v-48.125c18.977 0 34.375-15.387 34.375-34.375h48.125c0 45.563-36.938 82.5-82.5 82.5zM124.376 253.053v-48.125c45.563 0 82.489 36.938 82.489 82.5h-48.125c0.012-18.988-15.375-34.375-34.364-34.375zM81.41 287.428h-48.125c0-45.563 36.938-82.5 82.489-82.5v48.125c-18.977 0-34.364 15.387-34.364 34.375zM364.989 287.428h-48.125c0-45.563 36.938-82.5 82.488-82.5v48.125c-18.977 0-34.363 15.387-34.363 34.375zM524.818 253.053v-48.125c45.563 0 82.489 36.938 82.489 82.488h-48.125c0.011-18.977-15.387-34.363-34.364-34.363zM524.818 378.518v-48.125c18.977 0 34.375-15.387 34.375-34.375h48.125c-0.011 45.563-36.938 82.5-82.5 82.5zM433.728 296.019h48.125c0 18.977 15.387 34.375 34.375 34.375v48.125c-45.563 0-82.5-36.938-82.5-82.5zM481.853 287.428h-48.125v-123.738h48.125v48.757c10.465-4.809 22.104-7.507 34.375-7.507v48.125c-18.988-0.012-34.375 15.375-34.375 34.363zM234.376 378.518h48.125v-82.489h-48.125v82.488zM234.376 287.428h48.125v-82.5h-48.125v82.5zM285.933 149.939c0-15.188-12.312-27.5-27.5-27.5s-27.5 12.312-27.5 27.5c0 15.188 12.312 27.5 27.5 27.5s27.5-12.312 27.5-27.5zM744.807 378.518h48.125v-82.489h-48.125v82.488zM744.807 287.428h48.125v-82.5h-48.125v82.5zM634.807 296.019h48.125c0 18.988 15.387 34.375 34.375 34.375v48.113c-45.563 0-82.5-36.926-82.5-82.488zM634.807 287.428h48.125v-82.488h-48.125v82.488zM834.17 296.019h48.125c0 18.988 15.387 34.375 34.375 34.375v48.113c-45.573 0-82.5-36.926-82.5-82.488zM834.17 287.428h48.125v-82.488h-48.125v82.488zM1133.204 296.019c0 45.563-36.938 82.488-82.488 82.488v-48.125c18.977 0 34.375-15.387 34.375-34.375h48.113zM1085.090 287.428h48.125v-82.488h-48.125v82.488zM925.261 378.507v-48.125c18.977 0 34.375-15.387 34.375-34.375h48.125c0 18.988 15.387 34.375 34.375 34.375v48.125c-22.837 0-43.496-9.279-58.432-24.272-14.947 15.003-35.616 24.272-58.443 24.272zM959.625 287.428h48.125v-82.488h-48.125v82.488zM316.865 378.518v-82.5h48.125v34.375h34.375v48.125h-34.375zM81.41 419.757l-48.125-13.75v-109.988h48.125c0 18.988 15.387 34.375 34.375 34.375v48.125c-12.271 0-23.91-2.698-34.375-7.507v48.746zM995.139 122.993c0-3.669-1.829-6.062-3.612-7.225 3.816-1.321 6.672-3.974 6.672-9.166 0-6.976-5.497-10.894-12.429-10.894h-16.956v37.423h14.461c7.439 0 11.865-3.815 11.865-10.137zM976.558 126.051v-8.196h5.904c2.947 0 4.888 1.625 4.888 4.12 0 2.551-1.885 4.075-5.091 4.075h-5.701zM976.558 111.692v-8.907h8.241c3.364 0 5.497 1.524 5.497 4.437 0 2.901-2.088 4.481-5.701 4.481h-8.038zM1011.091 129.664c0-2.551-1.829-4.38-4.38-4.38-2.54 0-4.38 1.829-4.38 4.38s1.829 4.38 4.38 4.38c2.54 0 4.38-1.829 4.38-4.38zM1010.425 95.707h-7.485v25.818h7.485v-25.818zM1026.523 121.524h7.383v-6.31h-7.383v-9.776c0-2.235 1.422-3.511 3.568-3.511 1.524 0 2.597 0.35 3.307 0.767l1.886-5.904c-1.378-0.813-3.263-1.58-5.904-1.58-6.311 0-10.341 3.613-10.341 10.126v9.878h-4.629v6.31h4.629v8.557h7.485v-8.557zM1060.841 116.118l-5.351-3.974c-1.016 1.987-2.698 3.409-5.249 3.409-3.815 0-5.859-3.104-5.859-6.976 0-3.815 2.089-6.92 5.904-6.92 2.495 0 4.278 1.423 5.351 3.409l5.238-4.019c-2.337-3.669-5.859-5.859-10.646-5.859-7.891 0-13.389 5.656-13.389 13.389 0 7.744 5.497 13.445 13.343 13.445 4.798 0.012 8.309-2.179 10.657-5.904zM1089.967 108.531c0-7.744-5.803-13.344-13.649-13.344s-13.547 5.599-13.547 13.344 5.701 13.49 13.547 13.49c7.846 0.012 13.649-5.746 13.649-13.49zM1070.313 108.531c0-3.918 2.552-6.819 6.005-6.819 3.511 0 6.062 2.901 6.062 6.818 0 3.974-2.552 6.976-6.062 6.976-3.455 0-6.005-3.003-6.005-6.976zM1102.904 129.664c0-2.551-1.829-4.38-4.38-4.38s-4.38 1.829-4.38 4.38c0 2.551 1.829 4.38 4.38 4.38s4.38-1.829 4.38-4.38zM1102.249 95.707h-7.485v25.818h7.485v-25.818zM1133.204 110.575v-14.868h-7.485v14.461c0 2.856-1.581 4.832-4.222 4.832-2.337 0-3.918-1.479-4.888-3.060v-16.245h-7.485v25.818h6.717l0.361-2.856c1.275 1.885 3.771 3.364 7.338 3.364 6.254 0.012 9.664-4.471 9.664-11.447zM963.666 72.248c0-7.947-5.961-12.373-13.14-12.373h-7.18v-12.678h-7.789v37.423h14.969c7.135 0 13.14-4.425 13.14-12.373zM943.346 77.904v-11.3h6.412c3.612 0 6.062 1.885 6.062 5.656 0 3.669-2.449 5.656-6.062 5.656h-6.412zM982.913 66.096h-0.61c-3.059 0-4.99-1.524-6.468-3.409v-15.477h-7.485v25.818h6.672l0.463-3.409c1.275 2.089 3.816 3.918 7.428 3.918v-7.44zM1012.254 60.034c0-7.744-5.803-13.344-13.649-13.344-7.835 0-13.547 5.599-13.547 13.344s5.701 13.49 13.547 13.49c7.846 0 13.649-5.746 13.649-13.49zM992.6 60.034c0-3.918 2.54-6.818 6.005-6.818 3.511 0 6.062 2.901 6.062 6.818 0 3.974-2.552 6.976-6.062 6.976-3.466 0-6.005-3.003-6.005-6.976zM1026.263 73.016h7.383v-6.31h-7.383v-9.776c0-2.235 1.422-3.511 3.568-3.511 1.524 0 2.597 0.35 3.307 0.767l1.886-5.904c-1.378-0.813-3.263-1.58-5.904-1.58-6.311 0-10.341 3.613-10.341 10.126v9.878h-4.629v6.31h4.629v8.557h7.485v-8.557zM1063.788 60.034c0-7.744-5.803-13.344-13.649-13.344-7.834 0-13.547 5.599-13.547 13.344s5.701 13.49 13.547 13.49c7.846 0 13.649-5.746 13.649-13.49zM1044.145 60.034c0-3.918 2.54-6.818 6.005-6.818 3.511 0 6.062 2.901 6.062 6.818 0 3.974-2.552 6.976-6.062 6.976-3.466 0-6.005-3.003-6.005-6.976zM1091.197 67.62l-5.34-3.974c-1.016 1.987-2.698 3.409-5.249 3.409-3.815 0-5.859-3.104-5.859-6.976 0-3.815 2.089-6.92 5.904-6.92 2.495 0 4.278 1.423 5.351 3.409l5.238-4.019c-2.337-3.669-5.859-5.859-10.646-5.859-7.891 0-13.389 5.656-13.389 13.389s5.497 13.445 13.343 13.445c4.786 0 8.297-2.19 10.646-5.904zM1120.323 60.034c0-7.744-5.803-13.344-13.649-13.344s-13.547 5.599-13.547 13.344 5.701 13.49 13.547 13.49c7.846 0 13.649-5.746 13.649-13.49zM1100.669 60.034c0-3.918 2.552-6.818 6.005-6.818 3.511 0 6.062 2.901 6.062 6.818 0 3.974-2.552 6.976-6.062 6.976-3.455 0-6.005-3.003-6.005-6.976zM1132.605 47.198h-7.485v38.699h7.485v-38.699zM759.55-1.3h-7.789v37.423h7.789v-37.423zM788.833 20.59c1.885 2.596 4.481 4.425 8.5 4.425 6.005 0 9.268-4.481 9.268-11.459v-14.868h-7.541v14.461c0 2.856-1.378 4.832-3.918 4.832-2.235 0-3.714-1.423-4.787-3.060v-16.245h-7.485v14.461c0 2.856-1.378 4.832-3.918 4.832-2.235 0-3.714-1.479-4.787-3.060v-16.245h-7.485v25.818h6.717l0.35-2.856c1.321 1.829 3.714 3.364 7.338 3.364 3.624 0.034 6.22-1.603 7.744-4.402zM839.047 11.582c0-7.744-4.629-13.389-11.504-13.389-3.669 0-5.904 1.423-7.18 2.856v-14.055h-7.485v37.524h6.717l0.35-2.901c1.378 1.885 3.872 3.409 7.586 3.409 6.886 0 11.515-5.712 11.515-13.445zM820.364 15.25v-7.281c1.117-1.885 2.755-3.262 5.351-3.262 3.409 0 5.803 2.653 5.803 6.875 0 4.279-2.394 6.92-5.803 6.92-2.608 0-4.234-1.423-5.351-3.251zM851.33-1.3h-7.485v38.699h7.485v-38.699zM881.166 11.932v-2.394h-17.464c0.147-3.308 2.19-5.193 5.904-5.193 2.54 0 4.527 1.118 5.656 2.653l5.148-4.177c-2.698-3.104-6.107-4.628-10.951-4.628-8.094 0-13.287 5.599-13.287 13.344s5.294 13.49 12.982 13.49c8.094 0 12.011-6.017 12.011-13.095zM863.702 14.279h10.081c-0.101 2.901-1.829 5.091-4.888 5.091s-5.046-2.134-5.193-5.091zM908.316 20.59c1.885 2.596 4.481 4.425 8.5 4.425 6.005 0 9.268-4.481 9.268-11.459v-14.868h-7.541v14.461c0 2.856-1.378 4.832-3.918 4.832-2.235 0-3.714-1.423-4.787-3.060v-16.245h-7.485v14.461c0 2.856-1.378 4.832-3.918 4.832-2.235 0-3.714-1.479-4.787-3.060v-16.245h-7.485v25.818h6.717l0.35-2.856c1.321 1.829 3.714 3.364 7.338 3.364s6.209-1.603 7.744-4.402zM955.323 11.932v-2.394h-17.464c0.147-3.308 2.19-5.193 5.904-5.193 2.54 0 4.527 1.118 5.656 2.653l5.148-4.177c-2.698-3.104-6.107-4.628-10.951-4.628-8.094 0-13.287 5.599-13.287 13.344s5.294 13.49 12.982 13.49c8.083 0 12.011-6.017 12.011-13.095zM937.86 14.279h10.081c-0.101 2.901-1.829 5.091-4.888 5.091s-5.046-2.134-5.193-5.091zM984.393 13.568v-14.868h-7.485v14.461c0 2.856-1.581 4.832-4.222 4.832-2.337 0-3.918-1.479-4.888-3.060v-16.245h-7.485v25.818h6.717l0.361-2.856c1.275 1.885 3.77 3.364 7.338 3.364 6.254 0.012 9.663-4.471 9.663-11.447zM999.881 24.507h7.383v-6.31h-7.383v-9.776c0-2.235 1.423-3.511 3.567-3.511 1.524 0 2.596 0.35 3.308 0.767l1.885-5.904c-1.378-0.813-3.263-1.58-5.904-1.58-6.311 0-10.341 3.613-10.341 10.126v9.878h-4.64v6.31h4.64v8.557h7.485v-8.557zM1029.266 21.606l0.407 2.901h6.717v-25.818h-6.717l-0.407 2.856c-1.321-1.829-3.815-3.364-7.541-3.364-6.875 0-11.515 5.656-11.515 13.389s4.64 13.445 11.515 13.445c3.725 0.012 6.22-1.524 7.541-3.409zM1017.763 11.582c0-4.222 2.394-6.875 5.803-6.875 2.597 0 4.177 1.377 5.294 3.206v7.338c-1.118 1.829-2.698 3.262-5.294 3.262-3.409-0.012-5.803-2.653-5.803-6.932zM1052.443 24.507h7.383v-6.31h-7.383v-9.776c0-2.235 1.422-3.511 3.568-3.511 1.524 0 2.597 0.35 3.307 0.767l1.886-5.904c-1.378-0.813-3.263-1.58-5.904-1.58-6.311 0-10.341 3.613-10.341 10.126v9.878h-4.64v6.31h4.64v8.557h7.485v-8.557zM1072.966 32.658c0-2.551-1.829-4.38-4.38-4.38s-4.38 1.829-4.38 4.38c0 2.551 1.829 4.38 4.38 4.38 2.54 0 4.38-1.829 4.38-4.38zM1072.3-1.3h-7.485v25.818h7.485v-25.818zM1104.338 11.525c0-7.744-5.803-13.344-13.649-13.344s-13.547 5.599-13.547 13.344 5.701 13.49 13.547 13.49c7.834 0.012 13.649-5.746 13.649-13.49zM1084.672 11.525c0-3.918 2.552-6.818 6.005-6.818 3.511 0 6.062 2.901 6.062 6.818 0 3.974-2.552 6.976-6.062 6.976-3.455 0-6.005-3.003-6.005-6.976zM1133.204 13.568v-14.868h-7.485v14.461c0 2.856-1.581 4.832-4.222 4.832-2.337 0-3.918-1.479-4.888-3.060v-16.245h-7.485v25.818h6.717l0.361-2.856c1.275 1.885 3.771 3.364 7.338 3.364 6.254 0.012 9.664-4.471 9.664-11.447z" />
<glyph unicode="&#xe901;" glyph-name="bitprim-logo" horiz-adv-x="1551" d="M1069.22 419.587c0-20.948-16.983-37.931-37.931-37.931s-37.931 16.983-37.931 37.931c0 20.949 16.982 37.931 37.931 37.931s37.931-16.983 37.931-37.931zM142.26 343.726v-66.379c26.179 0 47.413-21.224 47.413-47.413h66.379c0.012 62.846-50.936 113.793-113.793 113.793zM142.26 170.666v-66.379c62.846 0 113.793 50.947 113.793 113.793h-66.379c0-26.19-21.224-47.413-47.413-47.413zM82.993 218.079h-66.379c0-62.846 50.947-113.793 113.793-113.793v66.379c-26.179 0-47.413 21.224-47.413 47.413zM474.167 218.079h-66.379c0-62.846 50.947-113.793 113.793-113.793v66.379c-26.19 0-47.413 21.224-47.413 47.413zM694.64 170.666v-66.379c62.846 0 113.793 50.947 113.793 113.793h-66.379c0-26.19-21.224-47.413-47.413-47.413zM694.64 343.726v-66.379c26.179 0 47.413-21.224 47.413-47.413h66.379c0.011 62.846-50.947 113.793-113.793 113.793zM568.995 229.933h66.379c0 26.19 21.223 47.413 47.413 47.413v66.379c-62.846 0-113.793-50.947-113.793-113.793zM635.374 218.079h-66.379v-170.689h66.379v67.249c14.438-6.627 30.491-10.352 47.413-10.352v66.379c-26.179 0-47.413 21.224-47.413 47.413zM293.995 343.726h66.379v-113.793h-66.379v113.793zM293.995 218.079h66.379v-113.793h-66.379v113.793zM365.115 28.413c0-20.949-16.983-37.931-37.931-37.931s-37.931 16.983-37.931 37.931c0 20.949 16.983 37.931 37.931 37.931s37.931-16.983 37.931-37.931zM998.1 343.726h66.379v-113.793h-66.379v113.793zM998.1 218.079h66.379v-113.793h-66.379v113.793zM846.365 229.921h66.379c0 26.19 21.224 47.413 47.413 47.413v66.379c-62.835 0.012-113.793-50.936-113.793-113.793zM846.365 218.079h66.379v-113.793h-66.379v113.793zM1121.375 229.921h66.379c0 26.19 21.224 47.413 47.414 47.413v66.379c-62.845 0.012-113.793-50.936-113.793-113.793zM1121.375 218.079h66.379v-113.793h-66.379v113.793zM1533.886 229.921c0 62.846-50.947 113.793-113.793 113.793v-66.379c26.19 0 47.414-21.224 47.414-47.413h66.379zM1467.495 218.079h66.379v-113.793h-66.379v113.793zM1247.021 343.726v-66.379c26.179 0 47.413-21.224 47.413-47.413h66.379c0 26.19 21.224 47.413 47.414 47.413v66.379c-31.496 0-60.001-12.802-80.603-33.472-20.602 20.67-49.107 33.472-80.603 33.472zM1294.435 218.079h66.379v-113.793h-66.379v113.793zM407.788 343.726v-113.793h66.379v47.413h47.413v66.379h-47.413zM82.993 400.621l-66.379-18.965v-151.724h66.379c0 26.19 21.224 47.413 47.413 47.413v66.379c-16.922 0-32.975-3.726-47.413-10.352v67.248z" />
<glyph unicode="&#xe902;" glyph-name="module-dash-stroke" horiz-adv-x="352" d="M295.505 272.464v-96.927h-239.010v96.927h239.010zM318.083 295.042h-284.166v-142.083h284.154v142.083h0.012z" />
<glyph unicode="&#xe903;" glyph-name="dot" horiz-adv-x="112" d="M99.316 224c0-23.923-19.393-43.316-43.316-43.316s-43.316 19.393-43.316 43.316c0 23.923 19.393 43.316 43.316 43.316s43.316-19.393 43.316-43.316z" />
<glyph unicode="&#xe904;" glyph-name="github" d="M255.988 408.236c-104.322-0.011-188.899-84.588-188.887-188.921 0-81.315 52.042-153.496 129.191-179.213 9.449-1.727 12.881 4.109 12.881 9.087 0 4.505-0.169 19.394-0.26 35.165-52.528-11.413-63.625 22.273-63.625 22.273-8.602 21.81-20.963 27.624-20.963 27.624-17.171 11.707 1.287 11.481 1.287 11.481 12.147-1.659 22.837-8.839 28.967-19.462 16.855-28.866 44.23-20.524 54.977-15.68 0.869 9.562 5.114 18.514 11.989 25.219-41.927 4.775-86.044 20.986-86.044 93.349-0.271 18.762 6.683 36.915 19.429 50.688-5.757 16.302-5.091 34.183 1.863 50.022 0 0 15.839 5.069 51.952-19.372 30.954 8.49 63.613 8.49 94.557 0 36.057 24.463 51.906 19.372 51.906 19.372 6.988-15.816 7.665-33.697 1.897-49.988 12.757-13.773 19.711-31.925 19.417-50.688 0-72.565-44.173-88.539-86.27-93.225 6.807-5.859 12.813-17.34 12.813-34.962 0-25.253-0.248-45.608-0.248-51.827 0-5.024 3.443-10.905 13.005-9.065 98.971 33.065 152.39 140.085 119.335 239.055-25.772 77.058-97.909 129.033-179.167 129.067z" />
<glyph unicode="&#xe905;" glyph-name="read-the-docs" d="M236.572 229.207c-5.419-0.718-9.227-5.69-8.51-11.109 0.523-3.934 3.342-7.175 7.169-8.233 0 0 24.093-7.974 65.118-11.298 32.937-2.668 70.285 2.298 70.285 2.298 5.463 0.158 9.762 4.714 9.604 10.171-0.158 5.463-4.714 9.762-10.171 9.604-0.649-0.019-1.291-0.101-1.92-0.245 0 0-36.536-4.519-66.263-2.108-39.149 3.172-60.517 10.341-60.517 10.341-1.53 0.591-3.179 0.787-4.796 0.579zM236.572 278.237c-5.419-0.717-9.227-5.69-8.51-11.109 0.523-3.934 3.342-7.175 7.169-8.233 0 0 24.093-7.974 65.118-11.298 32.937-2.668 70.285 2.298 70.285 2.298 5.463 0.157 9.762 4.714 9.604 10.171-0.158 5.463-4.714 9.762-10.171 9.604-0.649-0.019-1.291-0.101-1.92-0.245 0 0-36.536-4.519-66.263-2.108-39.149 3.172-60.517 10.341-60.517 10.341-1.53 0.586-3.179 0.787-4.796 0.579zM236.572 327.268c-5.419-0.718-9.227-5.69-8.51-11.109 0.523-3.934 3.342-7.175 7.169-8.232 0 0 24.093-7.975 65.118-11.298 32.937-2.668 70.285 2.298 70.285 2.298 5.463 0.157 9.762 4.714 9.604 10.171-0.158 5.463-4.714 9.762-10.171 9.605-0.649-0.019-1.291-0.101-1.92-0.245 0 0-36.536-4.519-66.263-2.108-39.149 3.172-60.517 10.341-60.517 10.341-1.53 0.585-3.179 0.781-4.796 0.579zM236.572 376.291c-5.419-0.717-9.227-5.69-8.51-11.109 0.523-3.934 3.342-7.175 7.169-8.233 0 0 24.093-7.974 65.118-11.298 32.937-2.668 70.285 2.298 70.285 2.298 5.463 0.157 9.762 4.714 9.604 10.171-0.158 5.463-4.714 9.762-10.171 9.605-0.649-0.019-1.291-0.101-1.92-0.245 0 0-36.536-4.519-66.263-2.109-39.149 3.172-60.517 10.341-60.517 10.341-1.53 0.591-3.179 0.787-4.796 0.579zM167.885 427.997c-51.523-0.346-70.719-16.214-70.719-16.214v-384.772c0 0 18.743 16.188 79.091 13.714s72.797-23.627 146.959-25.12 92.805 11.399 92.805 11.399l1.070 392.255c0 0-33.377-9.447-98.332-9.976s-80.564 16.522-140.193 18.524c-3.72 0.138-7.244 0.214-10.681 0.189zM210.993 402.884c0 0 31.219-10.322 88.891-13.18 48.741-2.417 97.62 4.808 97.62 4.808v-348.613c0 0-24.742-12.966-86.574-8.553-47.923 3.424-100.647 21.557-100.647 21.557l0.711 343.981zM180.888 393.795c5.507 0 9.976-4.469 9.976-9.976s-4.469-9.976-9.976-9.976c0 0-16.15-0.082-26.007-1.070-16.554-1.656-27.788-7.66-27.788-7.66-4.865-2.568-10.889-0.705-13.457 4.161s-0.698 10.889 4.166 13.457c0.013 0.007 0.019 0.012 0.031 0.012 0 0 14.659 7.754 35.096 9.8 11.802 1.19 27.958 1.252 27.958 1.252zM171.272 344.632c5.513 0.138 9.618 0 9.618 0 5.463-0.661 9.353-5.627 8.685-11.084-0.554-4.55-4.135-8.138-8.685-8.685 0 0-16.15-0.082-26.007-1.070-16.553-1.655-27.788-7.66-27.788-7.66-4.871-2.556-10.895-0.673-13.444 4.198-2.549 4.865-0.68 10.882 4.186 13.438 0 0 14.659 7.754 35.096 9.8 5.898 0.585 12.827 0.925 18.341 1.064zM180.888 295.647c5.507 0 9.976-4.469 9.976-9.976s-4.469-9.976-9.976-9.976c0 0-16.15 0.094-26.007-0.887-16.554-1.655-27.788-7.66-27.788-7.66-4.871-2.556-10.889-0.68-13.451 4.192-2.555 4.865-0.68 10.882 4.186 13.444 0 0 14.659 7.754 35.095 9.8 11.808 1.177 27.964 1.064 27.964 1.064z" />
<glyph unicode="&#xe906;" glyph-name="menu" d="M229.731 423.25h45.721v-404.766h-45.721v404.766zM66.504 423.25h45.721v-404.766h-45.721v404.766zM392.947 423.25h45.721v-404.766h-45.721v404.766z" />
<glyph unicode="&#xe907;" glyph-name="close" d="M379.527 61.6l-286.21 286.21 32.329 32.329 286.21-286.21-32.329-32.329zM411.86 347.815l-286.21-286.21-32.329 32.329 286.21 286.21 32.329-32.329z" />
<glyph unicode="&#xe908;" glyph-name="facebook" d="M295.5 339.87c-7.123 0-14.236-8.704-14.236-20.546v-40.301h70.331v-58.488h-70.331v-174.663h-67.169v174.663h-60.058v58.488h60.058v33.991c0 48.994 34.77 88.517 81.405 88.517h56.106v-61.649h-56.106z" />
<glyph unicode="&#xe909;" glyph-name="twitter" d="M410.050 294.782c0-3.149 0-6.322 0-9.483 0-98.79-75.083-211.804-211.815-211.804-42.661 0-81.405 11.853-114.583 33.19 5.531-0.79 11.853-0.79 18.164-0.79 34.782 0 67.181 11.853 92.468 31.62-32.4 0.779-60.058 22.127-69.54 52.155 3.951-1.58 8.693-1.58 13.422-1.58 7.124 0 13.434 0.779 19.756 2.37-33.98 7.112-59.267 37.141-59.267 73.502v0.779c9.483-5.52 21.347-8.692 33.19-9.482-19.767 13.434-33.19 36.362-33.19 62.428 0 13.434 3.951 26.089 10.273 37.152 37.141-45.043 91.677-75.083 154.105-77.454-1.58 4.752-2.37 11.063-2.37 16.606 0 41.103 33.178 74.281 75.072 74.281 21.348 0 40.301-8.692 53.747-22.916 17.385 3.161 33.19 9.494 47.413 17.397-5.531-17.397-17.385-31.62-32.399-41.103 15.014 2.37 29.25 6.322 42.673 11.853-10.25-15.014-22.894-27.658-37.118-38.721z" />
<glyph unicode="&#xe90a;" glyph-name="google-plus" d="M200.853 387.961h90.887v-1.581c0-10.273-18.175-11.865-30.819-14.236-3.951 0-12.643-0.779-15.014-2.37 22.906-11.853 26.868-31.609 26.868-60.058 0-33.19-12.644-50.575-26.868-62.428-7.903-7.903-15.014-13.434-15.014-21.347s9.482-15.804 19.756-25.287c17.385-15.014 41.103-35.56 41.103-70.331 0-36.362-15.805-62.428-45.844-76.663-23.718-11.853-49.005-13.423-59.267-13.423-1.591 0-2.382 0.779-3.172 0.779 0 0-0.779-0.779-1.581-0.779-15.014 0-91.666 3.951-91.666 73.502 0 67.971 82.974 73.491 108.261 73.491h0.79c-14.224 19.767-11.853 39.523-11.853 39.523-0.779 0-3.161 0-5.531 0-9.482 0-27.658 1.581-43.474 11.853-19.755 11.864-29.239 33.189-29.239 63.23 0 82.963 90.888 86.123 91.677 86.123zM197.692 169.046c-1.581 0-3.963 0-6.322 0-17.397-0.79-33.201-7.902-45.054-18.175-11.052-10.273-17.385-23.718-16.595-37.14 2.37-27.669 31.62-43.474 67.971-41.103 35.56 2.37 60.058 22.916 57.686 50.575-1.581 26.879-23.696 45.844-57.686 45.844zM183.457 363.464c-2.359 0-4.742 0-7.891-0.79-10.273-3.161-18.175-11.853-22.928-24.497-3.951-12.644-4.742-26.089-0.779-41.894 7.112-26.868 26.868-46.624 46.624-46.624 2.382 0 4.742 0 7.124 0.79 22.126 6.322 35.56 38.721 26.089 70.33-9.506 33.201-24.519 42.684-48.238 42.684zM444.277 252.030v-37.141h-59.279v-59.279h-37.141v59.279h-59.279v37.141h59.279v59.267h37.14v-59.267h59.279z" />
<glyph unicode="&#xe90b;" glyph-name="pinterest" d="M166.693 24.524c-11.853 82.985 16.595 144.635 30.029 210.223-22.126 37.931 3.161 114.594 50.575 95.629 58.488-22.916-50.575-141.462 22.917-156.476 76.663-15.805 108.272 133.56 60.058 181.775-68.761 69.551-199.951 1.58-184.145-98.79 3.951-24.497 29.238-31.609 10.273-65.6-44.264 10.273-56.907 45.043-55.316 90.887 2.37 75.873 67.971 128.819 133.56 136.72 82.985 9.483 161.218-30.819 171.491-109.063 12.644-87.726-37.14-183.344-125.658-176.232-24.497 1.58-34.77 13.434-52.946 25.288-11.041-54.548-23.696-106.704-60.837-134.361z" />
<glyph unicode="&#xe90c;" glyph-name="linkedin" d="M161.071 357.966c0-10.544-3.839-19.496-11.47-26.868-7.643-7.383-17.52-11.052-29.633-11.052-11.582 0-21.076 3.669-28.448 11.052-7.383 7.372-11.063 16.324-11.063 26.868 0 11.063 3.68 20.151 11.063 27.263 7.361 7.112 17.114 10.668 29.239 10.668 12.113 0 21.731-3.556 28.843-10.668s10.928-16.189 11.47-27.263zM82.827 45.837v244.18h75.873v-244.18h-75.873zM203.732 211.786c0 22.645-0.53 48.712-1.581 78.233h65.589l3.962-33.98h1.58c15.805 26.337 40.821 39.512 75.072 39.512 26.337 0 47.538-8.828 63.613-26.484 16.064-17.645 24.102-43.858 24.102-78.628v-144.611h-75.862v135.129c0 35.289-12.926 52.946-38.721 52.946-18.457 0-31.349-9.494-38.733-28.46-1.58-3.161-2.37-9.483-2.37-18.966v-140.661h-76.652v165.97z" />
<glyph unicode="&#xe90d;" glyph-name="youtube" d="M453.015 315.644c-7.744 30.977-22.273 42.921-49.005 47.233-15.409 2.258-89.42 5.181-148.123 5.181h0.237c-58.702 0-132.713-2.912-148.123-5.181-26.743-4.313-41.261-16.256-49.005-47.233-2.608-10.409-6.197-67.474-6.197-89.262v-4.775c0-21.776 3.59-78.831 6.197-89.262 7.744-30.977 22.262-42.921 49.005-47.211 15.409-2.281 89.42-5.182 148.123-5.182h-0.237c58.703 0 132.713 2.901 148.122 5.182 26.733 4.301 41.261 16.233 49.005 47.211 2.608 10.442 6.197 67.486 6.197 89.262v4.775c0 21.787-3.59 78.853-6.197 89.262zM182.385 315.971l170.802-89.161-170.802-93.462v182.622z" />
<glyph unicode="&#xe90e;" glyph-name="instragram" d="M256 386.798c53.024 0 59.301-0.203 80.242-1.163 19.361-0.88 29.87-4.12 36.87-6.841 9.268-3.601 15.884-7.903 22.837-14.857s11.255-13.558 14.856-22.837c2.721-6.999 5.95-17.509 6.841-36.87 0.959-20.941 1.163-27.217 1.163-80.242s-0.203-59.301-1.163-80.242c-0.88-19.361-4.12-29.87-6.841-36.87-3.601-9.268-7.902-15.884-14.856-22.837s-13.558-11.255-22.837-14.856c-6.999-2.721-17.509-5.95-36.87-6.841-20.941-0.959-27.218-1.163-80.242-1.163s-59.301 0.203-80.242 1.163c-19.361 0.88-29.87 4.12-36.87 6.841-9.268 3.601-15.883 7.902-22.838 14.856s-11.255 13.558-14.856 22.837c-2.721 6.999-5.95 17.509-6.841 36.87-0.96 20.941-1.163 27.217-1.163 80.242s0.203 59.301 1.163 80.242c0.88 19.361 4.12 29.87 6.841 36.87 3.601 9.268 7.903 15.884 14.856 22.837s13.558 11.255 22.838 14.857c6.999 2.72 17.509 5.95 36.87 6.841 20.941 0.96 27.218 1.163 80.242 1.163zM256 422.573c-53.928 0-60.69-0.226-81.868-1.196-21.133-0.959-35.572-4.324-48.204-9.235-13.061-5.069-24.136-11.864-35.177-22.894-11.029-11.041-17.826-22.115-22.894-35.176-4.91-12.633-8.264-27.071-9.234-48.204-0.971-21.178-1.197-27.94-1.197-81.867s0.226-60.69 1.197-81.868c0.959-21.133 4.324-35.572 9.234-48.204 5.080-13.062 11.864-24.136 22.906-35.176s22.115-17.825 35.176-22.906c12.632-4.911 27.071-8.264 48.204-9.235 21.178-0.971 27.94-1.197 81.867-1.197s60.69 0.226 81.868 1.197c21.133 0.959 35.572 4.324 48.204 9.235 13.062 5.080 24.136 11.865 35.176 22.906s17.825 22.115 22.906 35.176c4.911 12.632 8.264 27.071 9.235 48.204 0.971 21.178 1.197 27.94 1.197 81.868s-0.226 60.69-1.197 81.868c-0.959 21.133-4.324 35.572-9.235 48.204-5.080 13.062-11.865 24.136-22.906 35.177s-22.115 17.825-35.176 22.905c-12.632 4.911-27.071 8.264-48.204 9.235-21.19 0.959-27.952 1.185-81.879 1.185v0zM256 325.974c-56.321 0-101.974-45.652-101.974-101.974s45.653-101.974 101.974-101.974 101.974 45.652 101.974 101.974c0 56.31-45.652 101.974-101.974 101.974zM256 157.801c-36.553 0-66.187 29.634-66.187 66.187s29.633 66.187 66.187 66.187c36.553 0 66.187-29.633 66.187-66.187 0.012-36.543-29.634-66.187-66.187-66.187zM385.834 329.992c0-13.161-10.67-23.831-23.831-23.831s-23.831 10.67-23.831 23.831c0 13.162 10.67 23.831 23.831 23.831s23.831-10.669 23.831-23.831z" />
<glyph unicode="&#xe90f;" glyph-name="address" d="M252.997 192.955h-0.023c-49.909 0.045-90.549 40.685-90.594 90.594 0.056 49.931 40.685 90.572 90.594 90.628 49.931-0.045 90.571-40.696 90.628-90.606-0.057-49.931-40.697-90.572-90.606-90.617zM252.975 351.599c-37.457-0.034-67.982-30.57-68.016-68.050 0.034-37.457 30.559-67.971 68.028-68.016 37.48 0.045 68.005 30.571 68.038 68.038-0.034 37.468-30.57 67.993-68.050 68.027zM252.997-12.493l-6.683 4.888c-38.281 28.019-163.182 131.81-163.182 291.233 0.147 93.529 76.336 169.707 169.832 169.854 93.54-0.147 169.73-76.324 169.887-169.832 0-158.915-124.89-263.089-163.171-291.233l-6.683-4.911zM252.964 430.904c-81.055-0.124-147.129-66.198-147.254-147.287 0-140.582 105.191-235.635 147.264-267.978 42.063 32.478 147.299 127.87 147.299 268-0.135 81.066-66.21 147.14-147.31 147.264z" />
<glyph unicode="&#xe910;" glyph-name="email" d="M438.554 361.161l-365.153 0.012c-26.191-0.135-47.605-21.55-47.741-47.786v-194.825c0.147-26.168 21.55-47.572 47.786-47.719h365.164c26.156 0.147 47.572 21.55 47.73 47.775v194.814c-0.135 26.179-21.55 47.583-47.786 47.73zM73.457 338.595l365.029-0.012c1.502-0.011 2.957-0.203 4.392-0.463l-186.867-134.18-186.9 134.192c1.422 0.26 2.856 0.452 4.347 0.463zM463.762 118.685c-0.091-13.851-11.402-25.175-25.231-25.264h-365.007c-13.874 0.079-25.197 11.413-25.276 25.197v194.712c0.011 3.68 0.87 7.157 2.325 10.329l205.448-147.501 205.425 147.49c1.445-3.149 2.303-6.615 2.325-10.284v-194.679z" />
<glyph unicode="&#xe911;" glyph-name="phone" d="M331.557-10.539h-147.592c-40.087 0.045-72.724 32.693-72.78 72.769v319.76c0.056 40.087 32.693 72.724 72.769 72.78h147.592v-11.323l0.012 11.289c40.076-0.045 72.701-32.693 72.757-72.757v-319.726c-0.057-40.099-32.682-72.746-72.757-72.791zM183.965 432.191c-27.636-0.034-50.168-22.567-50.202-50.214v-319.726c0.034-27.635 22.566-50.168 50.214-50.202h147.57c27.635 0.034 50.157 22.567 50.191 50.224v319.681c-0.034 27.635-22.555 50.157-50.202 50.202v0.034h-147.57zM257.75 79.727c9.675 0 17.509-7.834 17.509-17.509s-7.834-17.509-17.509-17.509c-9.674 0-17.509 7.834-17.509 17.509s7.846 17.509 17.509 17.509zM282.36 370.7h-49.197c-6.243 0-11.289 5.058-11.289 11.289s5.046 11.289 11.289 11.289h49.197c6.243 0 11.289-5.058 11.289-11.289s-5.058-11.289-11.289-11.289z" />
<glyph unicode="&#xe912;" glyph-name="bitcoin-BTC" horiz-adv-x="1376" d="M162.077 360.188c38.693 0 61.411-18.423 61.411-49.129 0-30.063-23.32-49.731-58.923-49.731h-71.245v98.86h68.757zM190.334 187.033c43.59 0 68.757-19.026 68.757-54.026s-25.809-53.383-66.308-53.383h-99.462v107.409h97.013zM174.359 445.522h-174.359v-451.231h204.423c83.487 0 149.795 47.282 149.795 131.372 0 62.615-34.398 94.565-80.437 110.5 21.474 14.129 43.59 42.988 43.59 87.18 0.040 76.142-53.384 122.18-143.012 122.18zM847.152 445.522h-386.168v-82.283h146.102v-368.949h93.321v368.949h146.745zM1199.162 453.469c-135.667 0-231.436-100.064-231.436-233.282 0-133.82 95.769-233.884 231.436-233.884 65.706 0 119.090 19.627 163.924 68.757l-58.321 68.154c-23.963-28.859-58.922-51.577-105.603-51.577-82.885 0-136.91 62.615-136.91 148.55s54.025 147.948 136.91 147.948c46.038 0 80.437-22.116 104.359-50.333l58.922 68.154c-43.55 44.834-92.036 67.512-163.282 67.512z" />
<glyph unicode="&#xe913;" glyph-name="bitcoin-cash-BCH" horiz-adv-x="1376" d="M697.036 453.469c-135.667 0-231.435-100.064-231.435-233.282 0-133.82 95.769-233.884 231.435-233.884 65.706 0 119.090 19.627 163.923 68.757l-58.321 68.154c-23.962-28.859-58.923-51.577-105.603-51.577-82.885 0-136.911 62.615-136.911 148.55s54.025 147.948 136.91 147.948c46.038 0 80.437-22.116 104.359-50.333l58.923 68.154c-43.549 44.834-92.077 67.512-163.281 67.512zM1346.227 445.522h-93.321v-177.45h-182.949v177.45h-93.923v-451.231h93.923v188.448h182.949v-188.448h93.321zM161.957 360.188c38.693 0 61.411-18.423 61.411-49.129 0-30.063-23.32-49.731-58.923-49.731h-71.245v98.86h68.757zM190.214 187.033c43.59 0 68.757-19.026 68.757-54.026s-25.768-53.383-66.308-53.383h-99.462v107.409h97.013zM174.239 445.522h-174.359v-451.231h204.423c83.487 0 149.795 47.282 149.795 131.372 0 62.615-34.398 94.565-80.437 110.5 21.474 14.129 43.59 42.988 43.59 87.18 0.040 76.142-53.384 122.18-143.012 122.18z" />
<glyph unicode="&#xe914;" glyph-name="litecoin-LTC" horiz-adv-x="1392" d="M132.495 445.522h-93.923v-451.231h286.103v82.243h-192.18zM847.152 445.522h-386.168v-82.283h146.102v-368.949h93.321v368.949h146.745zM1199.162 453.469c-135.667 0-231.436-100.064-231.436-233.282 0-133.82 95.769-233.884 231.436-233.884 65.706 0 119.090 19.627 163.924 68.757l-58.321 68.154c-23.963-28.859-58.922-51.577-105.603-51.577-82.885 0-136.91 62.615-136.91 148.55s54.025 147.948 136.91 147.948c46.038 0 80.437-22.116 104.359-50.333l58.922 68.154c-43.55 44.834-92.036 67.512-163.282 67.512z" />
<glyph unicode="&#xe915;" glyph-name="moduledash" horiz-adv-x="352" d="M33.923 152.959h284.154v142.083h-284.154v-142.083z" />
<glyph unicode="&#xe916;" glyph-name="gitbook" d="M233.129 113.91c7.394 0 13.388-5.995 13.388-13.389s-5.994-13.4-13.388-13.4c-7.394 0-13.4 5.995-13.4 13.4 0.012 7.383 6.006 13.377 13.4 13.389zM443.464 196.873c-7.394 0-13.4 5.995-13.411 13.4 0 7.394 5.995 13.4 13.4 13.4 7.394 0 13.4-5.995 13.4-13.389 0 0 0 0 0-0.012-0.012-7.394-5.995-13.389-13.389-13.4zM443.464 251.749c-22.894-0.023-41.453-18.582-41.487-41.475 0.012-4.493 0.757-8.952 2.202-13.197l-137.025-72.938c-12.994 18.818-38.789 23.526-57.596 10.544-5.837-4.030-10.532-9.494-13.649-15.861l-123.095 64.911c-13.005 6.83-22.748 28.257-21.709 47.752 0.542 10.16 4.053 18.063 9.404 21.111 3.759 1.93 8.241 1.738 11.819-0.508l0.824-0.44c32.614-17.182 139.374-73.412 143.867-75.501 6.942-3.217 10.792-4.505 22.623 1.095l220.677 114.775c3.974 1.287 6.751 4.865 7.010 9.031-0.305 4.087-2.957 7.632-6.784 9.088-12.542 6.017-31.846 15.048-50.654 23.843-40.212 18.83-85.808 40.178-105.834 50.665-10.465 5.882-23.255 5.837-33.663-0.124l-4.82-2.382c-90.097-44.558-210.686-104.276-217.538-108.442-12.294-7.485-19.913-22.375-20.896-40.888-1.535-29.352 13.456-59.922 34.815-71.121l130.162-67.101c3.262-22.668 24.282-38.394 46.951-35.12 20.184 2.901 35.256 20.060 35.537 40.449l143.37 77.702c18.063-14.1 44.118-10.894 58.217 7.157s10.894 44.118-7.168 58.217c-7.293 5.701-16.279 8.794-25.547 8.783z" />
<glyph unicode="&#xe917;" glyph-name="confirmation" d="M204.421 96.988l-97.582 97.593 31.925 31.936 65.656-65.657 162.923 162.9 31.925-31.925z" />
<glyph unicode="&#xe918;" glyph-name="arrow-right" horiz-adv-x="1728" d="M1727.79 224l-396.449 252.387v-209.384h-1331.131v-86.007h1331.131v-209.384z" />
<glyph unicode="&#xe919;" glyph-name="documents" d="M430.008 353.541l-81.1 76.652c-3.613 3.421-8.342 5.306-13.332 5.306h-131.471c-28.64 0-51.952-23.301-51.952-51.952v-13.152h-11.492c-28.651 0-51.963-23.3-51.963-51.952v-254.035c0-28.64 23.3-51.952 51.963-51.952h180.036c28.64 0 51.952 23.3 51.952 51.952v13.151h11.492c28.651 0 51.963 23.3 51.963 51.952v209.907c-0.012 5.306-2.224 10.442-6.096 14.123zM346.876 401.045l56.185-53.103h-31.632c-13.536 0-24.553 11.018-24.553 24.553v28.55zM320.709 35.045h-180.048c-16.2 0-29.385 13.174-29.385 29.374v254.024c0 16.2 13.186 29.374 29.385 29.374h120.183v-40.426c0-25.987 21.144-47.132 47.132-47.132h42.096v-195.852c0-16.188-13.174-29.363-29.363-29.363zM283.432 335.964l56.185-53.114h-31.632c-13.536 0-24.553 11.018-24.553 24.553v28.561zM384.141 100.137h-11.492v174.178c0 5.329-2.212 10.476-6.085 14.111l-81.066 76.652c-3.624 3.432-8.365 5.329-13.366 5.329h-97.412v13.141c0 16.199 13.174 29.374 29.374 29.374h120.193v-40.426c0-25.987 21.144-47.132 47.132-47.132h42.096v-195.853c0-16.188-13.185-29.374-29.374-29.374zM313.608 192.538h-165.857c-6.243 0-11.289-5.058-11.289-11.289s5.046-11.289 11.289-11.289h165.857c6.243 0 11.289 5.058 11.289 11.289s-5.058 11.289-11.289 11.289zM313.608 138.656h-165.857c-6.243 0-11.289-5.058-11.289-11.289s5.046-11.289 11.289-11.289h165.857c6.243 0 11.289 5.058 11.289 11.289s-5.058 11.289-11.289 11.289z" />
<glyph unicode="&#xe91a;" glyph-name="chevron-right-circle" d="M256 412.988c104.186 0 188.955-84.769 188.955-188.955s-84.769-188.955-188.955-188.955-188.955 84.769-188.955 188.955 84.769 188.955 188.955 188.955zM256 435.567c-116.829 0-211.532-94.703-211.532-211.533s94.703-211.533 211.532-211.533c116.829 0 211.533 94.703 211.533 211.532s-94.703 211.532-211.533 211.532v0zM217.899 89.051l-15.545 16.38 124.607 118.32-124.608 118.342 15.545 16.369 141.857-134.712z" />
</font>
</defs>
</svg>
