<svg xmlns="http://www.w3.org/2000/svg" viewBox="0 0 119.06 119.06"><defs><style>.cls-1{fill:#778592;}.cls-2{fill:#f15a22;}</style></defs><title>Asset 1</title><g id="Layer_2" data-name="Layer 2"><g id="Layer_1-2" data-name="Layer 1"><path class="cls-1" d="M109.45,49.93H82.57a9.61,9.61,0,0,0-9.6,9.6V75.91L61.45,73.35V68.61A23,23,0,0,0,71,50.71a27.94,27.94,0,0,0,7.72-19.33V23a9.61,9.61,0,0,0-8.33-9.51A24.07,24.07,0,0,0,48.74,0H45.51A28.34,28.34,0,0,0,28.18,6a28,28,0,0,0-10.9,22.28V55.69A5.77,5.77,0,0,0,23,61.45h5a23.24,23.24,0,0,0,6.48,7.16v4.74l-15,3.34A24.81,24.81,0,0,0,0,101.06v18H109.46a9.62,9.62,0,0,0,9.6-9.6V59.53A9.61,9.61,0,0,0,109.45,49.93ZM73,79.85v6l-4.18-7ZM23,57.61a1.92,1.92,0,0,1-1.92-1.92V45.54A28.4,28.4,0,0,0,25,50.71a22.88,22.88,0,0,0,1.31,6.9Zm4.63-21.12H25v8a24.15,24.15,0,0,1-3.84-13.1V28.23A24.21,24.21,0,0,1,30.54,9a24.53,24.53,0,0,1,15-5.14h3.23A20.22,20.22,0,0,1,67.36,16.12l.5,1.16h1.27A5.77,5.77,0,0,1,74.89,23v8.34a24.15,24.15,0,0,1-3.84,13.1V28.8H66.84l-.66.27A103.26,103.26,0,0,1,27.67,36.49Zm5,25h8a5.75,5.75,0,0,0,5.41,3.84h3.84a5.76,5.76,0,1,0,0-11.52H46.09a5.75,5.75,0,0,0-5.41,3.84H30.42a19.1,19.1,0,0,1-1.62-7.68V40.32a106.88,106.88,0,0,0,38.41-7.53V49.93A19.18,19.18,0,0,1,32.68,61.45Zm11.49-1.92a1.92,1.92,0,0,1,1.92-1.92h3.84a1.92,1.92,0,1,1,0,3.84H46.09A1.92,1.92,0,0,1,44.17,59.53ZM23,115.22v-7.68H19.2v7.68H3.84V101.06A21,21,0,0,1,20.38,80.44l6.84-1.52-4.89,8.15L32.14,93l-5.7,13.28,12,9H23Zm21.76,0L31.16,105,37,91.39,27.6,85.75l4.77-8,0,0,2.77-.62,10.38,38.06ZM38.4,74.64V70.85a22.82,22.82,0,0,0,19.21,0v3.78L48,109.84Zm12.12,40.58L60.9,77.16l2.78.62,0,0,4.77,8L59,91.39,64.85,105,51.21,115.21h-.69Zm7.09,0,12-9L63.87,93,73,87.5v22a9.5,9.5,0,0,0,2,5.76Zm57.6-5.77a5.77,5.77,0,0,1-5.76,5.77H82.57a5.77,5.77,0,0,1-5.76-5.77v-1.92h38.4v1.92Zm0-5.75H76.81V63.37h38.4ZM76.81,59.53a5.76,5.76,0,0,1,5.76-5.76h26.88a5.77,5.77,0,0,1,5.77,5.76Z"/><rect class="cls-1" x="90.25" y="109.45" width="11.52" height="3.84"/><rect class="cls-2" x="90.25" y="109.46" width="11.52" height="3.84"/><path class="cls-2" d="M109.45,49.93H82.57a9.61,9.61,0,0,0-9.6,9.6v49.93a9.62,9.62,0,0,0,9.6,9.6h26.88a9.62,9.62,0,0,0,9.61-9.6V59.53A9.61,9.61,0,0,0,109.45,49.93Zm5.76,59.53a5.77,5.77,0,0,1-5.76,5.76H82.57a5.77,5.77,0,0,1-5.76-5.76v-1.92h38.4v1.92Zm0-5.76H76.81V63.37h38.4ZM76.81,59.53a5.76,5.76,0,0,1,5.76-5.76h26.88a5.77,5.77,0,0,1,5.77,5.76Z"/></g></g></svg>