<svg xmlns="http://www.w3.org/2000/svg" viewBox="0 0 484.79 184.66"><defs><style>.cls-1{fill:#f15a22;}.cls-2{fill:#000d71;}</style></defs><title>Asset 1</title><g id="Layer_2" data-name="Layer 2"><g id="Layer_1-2" data-name="Layer 1"><g id="Group_12" data-name="Group 12"><path id="Path_25" data-name="Path 25" class="cls-1" d="M109.74,36.33H88.54V72.66h21.2Z"/><path id="Path_26" data-name="Path 26" class="cls-1" d="M109.74,76.44H88.54v36.33h21.2Z"/><path id="Path_28" data-name="Path 28" class="cls-1" d="M313.33,72.66h21.19V36.33H313.33Z"/><path id="Path_29" data-name="Path 29" class="cls-1" d="M313.33,112.77h21.19V76.44H313.33Z"/><path id="Path_27" data-name="Path 27" class="cls-1" d="M264.89,112.77h21.19V76.44H264.89Z"/><path id="Path_30" data-name="Path 30" class="cls-1" d="M352.68,112.77h21.2V76.44h-21.2Z"/><path id="Path_32" data-name="Path 32" class="cls-1" d="M463.17,112.77h21.2V76.44h-21.2Z"/><path id="Path_31" data-name="Path 31" class="cls-1" d="M407.92,112.77h21.2V76.44h-21.2Z"/><path id="Path_33" data-name="Path 33" class="cls-1" d="M352.68,72.66h21.19A15.14,15.14,0,0,1,389,57.52V36.33a36.32,36.32,0,0,0-36.32,36.32h0"/><path id="Path_34" data-name="Path 34" class="cls-1" d="M392.79,36.33V57.52a15.14,15.14,0,0,1,15.14,15.14h21.19a15.15,15.15,0,0,1,15.13-15.14V36.33A36.24,36.24,0,0,0,418.52,47a36.22,36.22,0,0,0-25.73-10.68"/><path id="Path_35" data-name="Path 35" class="cls-1" d="M484.36,72.66A36.32,36.32,0,0,0,448,36.33h0V57.52a15.14,15.14,0,0,1,15.14,15.14Z"/><path id="Path_36" data-name="Path 36" class="cls-1" d="M323.92,0A12.11,12.11,0,1,0,336,12.11,12.11,12.11,0,0,0,323.92,0h0"/><path id="Path_37" data-name="Path 37" class="cls-1" d="M264.89,72.66h21.19a15.14,15.14,0,0,1,15.14-15.14V36.33a36.32,36.32,0,0,0-36.33,36.32h0"/><path id="Path_38" data-name="Path 38" class="cls-1" d="M216.45,36.33V57.52a15.14,15.14,0,0,1,15.14,15.14h21.19a36.32,36.32,0,0,0-36.33-36.33h0"/><path id="Path_39" data-name="Path 39" class="cls-1" d="M216.45,91.58v21.19a36.34,36.34,0,0,0,36.33-36.33h-21.2a15.14,15.14,0,0,1-15.13,15.14"/><path id="Path_40" data-name="Path 40" class="cls-1" d="M197.54,76.44h-21.2v54.49h21.2V109.46a36.24,36.24,0,0,0,15.13,3.31V91.57a15.12,15.12,0,0,1-15.13-15.13"/><path id="Path_41" data-name="Path 41" class="cls-1" d="M176.34,72.66h21.2a15.13,15.13,0,0,1,15.13-15.14V36.33a36.33,36.33,0,0,0-36.33,36.32h0"/><path id="Path_42" data-name="Path 42" class="cls-1" d="M124.88,36.33V72.66h21.19V57.52H161.2V36.33Z"/><path id="Path_43" data-name="Path 43" class="cls-1" d="M146.06,76.44H124.87a36.34,36.34,0,0,0,36.33,36.33h0V91.57a15.14,15.14,0,0,1-15.14-15.13"/><path id="Path_44" data-name="Path 44" class="cls-1" d="M99.15,124.88A12.11,12.11,0,1,0,111.26,137a12.11,12.11,0,0,0-12.11-12.11h0"/><path id="Path_45" data-name="Path 45" class="cls-1" d="M40.11,91.58v21.19A36.34,36.34,0,0,0,76.44,76.44H55.25A15.15,15.15,0,0,1,40.11,91.58"/><path id="Path_46" data-name="Path 46" class="cls-1" d="M40.11,36.33V57.52A15.14,15.14,0,0,1,55.25,72.66H76.44A36.32,36.32,0,0,0,40.11,36.33h0"/><path id="Path_47" data-name="Path 47" class="cls-1" d="M21.19,76.44H0a36.33,36.33,0,0,0,36.33,36.33h0V91.57A15.14,15.14,0,0,1,21.19,76.44"/><path id="Path_48" data-name="Path 48" class="cls-1" d="M21.19,18.17,0,24.22V72.66H21.19A15.15,15.15,0,0,1,36.33,57.52V36.33a36.15,36.15,0,0,0-15.14,3.3Z"/></g><path class="cls-2" d="M350.67,184.66h-.24l-25.37-22v21.21H313.45V138.14h.24l25.37,22V138.94h11.61Z"/><path class="cls-2" d="M403.24,161.49c0,13.39-10.08,23.17-23.41,23.17s-23.41-9.78-23.41-23.17,10-23.35,23.41-23.35S403.24,148,403.24,161.49Zm-35,0c0,7.4,4.77,12.59,11.61,12.59s11.61-5.19,11.61-12.59-4.76-12.77-11.61-12.77S368.22,154,368.22,161.49Z"/><path class="cls-2" d="M448.66,161.37c0,14.18-9.23,22.49-24.88,22.49H409V138.94h14.79C439.31,138.94,448.66,147.19,448.66,161.37Zm-28.05-11.8v23.72h2.81c9,0,13.45-4.4,13.45-11.86s-4.47-11.86-13.45-11.86Z"/><path class="cls-2" d="M484.3,149.51H466v6.73h15.7V166H466v7.33h18.76v10.58H454.41V138.94H484.3v10.57Z"/></g></g></svg>