<!--?xml version="1.0" encoding="utf-8"?-->
<!-- Generator: Adobe Illustrator 17.0.0, SVG Export Plug-In . SVG Version: 6.00 Build 0)  -->

<svg version="1.1" id="Layer_1" xmlns="http://www.w3.org/2000/svg" xmlns:xlink="http://www.w3.org/1999/xlink" x="0px" y="0px" width="348.1px" height="392px" viewBox="124.665 226.232 348.1 392" enable-background="new 124.665 226.232 348.1 392" xml:space="preserve" style="">
<path fill="none" stroke="#E6E7E9" stroke-width="5" stroke-miterlimit="10" d="M411.319,504.376A29.32,29.32 0,1,1 469.959,504.376A29.32,29.32 0,1,1 411.319,504.376" class="OTMpVbjH_0"></path>
<g>
	<path fill="none" stroke="#E6E7E9" stroke-width="5" stroke-miterlimit="10" d="M219.293,376.591L298.662,330.951L
		378.031,376.591L378.031,422.232L440.639,422.232L440.639,475.056" class="OTMpVbjH_1"></path>
	<path fill="none" stroke="#E6E7E9" stroke-width="5" stroke-miterlimit="10" d="M127.36500000000001,340.089A29.32,29.32 0,1,1 186.005,340.089A29.32,29.32 0,1,1 127.36500000000001,340.089" class="OTMpVbjH_2"></path>
	<path fill="none" stroke="#E6E7E9" stroke-width="5" stroke-miterlimit="10" d="M378.031,467.873L298.662,513.514L
		219.293,467.873L219.293,422.232L156.685,422.232L156.685,369.409" class="OTMpVbjH_3"></path>
</g>
<path fill="none" stroke="#E6E7E9" stroke-width="5" stroke-miterlimit="10" d="M411.469,340.349A29.32,29.32 0,1,1 470.109,340.349A29.32,29.32 0,1,1 411.469,340.349" class="OTMpVbjH_4"></path>
<g>
	<path fill="none" stroke="#E6E7E9" stroke-width="5" stroke-miterlimit="10" d="M353.076,327.984L369.65,299.277L
		415.397,325.689" class="OTMpVbjH_5"></path>
	<path fill="none" stroke="#E6E7E9" stroke-width="5" stroke-miterlimit="10" d="M127.215,504.116A29.32,29.32 0,1,1 185.855,504.116A29.32,29.32 0,1,1 127.215,504.116" class="OTMpVbjH_6"></path>
</g>
<g>
	<path fill="none" stroke="#E6E7E9" stroke-width="5" stroke-miterlimit="10" d="M244.248,516.48L227.674,545.188L
		181.927,518.776" class="OTMpVbjH_7"></path>
</g>
<path fill="none" stroke="#E6E7E9" stroke-width="5" stroke-miterlimit="10" d="M269.492,258.205A29.32,29.32 0,1,1 328.132,258.205A29.32,29.32 0,1,1 269.492,258.205" class="OTMpVbjH_8"></path>
<g>
	<path fill="none" stroke="#E6E7E9" stroke-width="5" stroke-miterlimit="10" d="M244.248,327.984L227.674,299.277L
		273.42,272.865" class="OTMpVbjH_9"></path>
</g>
<path fill="none" stroke="#E6E7E9" stroke-width="5" stroke-miterlimit="10" d="M269.192,586.26A29.32,29.32 0,1,1 327.832,586.26A29.32,29.32 0,1,1 269.192,586.26" class="OTMpVbjH_10"></path>
<g>
	<path fill="none" stroke="#E6E7E9" stroke-width="5" stroke-miterlimit="10" d="M353.076,516.48L369.65,545.188L
		323.904,571.6" class="OTMpVbjH_11"></path>
</g>
<style data-made-with="vivus-instant">.OTMpVbjH_0{stroke-dasharray:185 187;stroke-dashoffset:186;animation:OTMpVbjH_draw 1333ms ease 0ms forwards;}.OTMpVbjH_1{stroke-dasharray:345 347;stroke-dashoffset:346;animation:OTMpVbjH_draw 1333ms ease 60ms forwards;}.OTMpVbjH_2{stroke-dasharray:185 187;stroke-dashoffset:186;animation:OTMpVbjH_draw 1333ms ease 121ms forwards;}.OTMpVbjH_3{stroke-dasharray:345 347;stroke-dashoffset:346;animation:OTMpVbjH_draw 1333ms ease 181ms forwards;}.OTMpVbjH_4{stroke-dasharray:185 187;stroke-dashoffset:186;animation:OTMpVbjH_draw 1333ms ease 242ms forwards;}.OTMpVbjH_5{stroke-dasharray:86 88;stroke-dashoffset:87;animation:OTMpVbjH_draw 1333ms ease 303ms forwards;}.OTMpVbjH_6{stroke-dasharray:185 187;stroke-dashoffset:186;animation:OTMpVbjH_draw 1333ms ease 363ms forwards;}.OTMpVbjH_7{stroke-dasharray:86 88;stroke-dashoffset:87;animation:OTMpVbjH_draw 1333ms ease 424ms forwards;}.OTMpVbjH_8{stroke-dasharray:185 187;stroke-dashoffset:186;animation:OTMpVbjH_draw 1333ms ease 484ms forwards;}.OTMpVbjH_9{stroke-dasharray:86 88;stroke-dashoffset:87;animation:OTMpVbjH_draw 1333ms ease 545ms forwards;}.OTMpVbjH_10{stroke-dasharray:185 187;stroke-dashoffset:186;animation:OTMpVbjH_draw 1333ms ease 606ms forwards;}.OTMpVbjH_11{stroke-dasharray:86 88;stroke-dashoffset:87;animation:OTMpVbjH_draw 1333ms ease 666ms forwards;}@keyframes OTMpVbjH_draw{100%{stroke-dashoffset:0;}}@keyframes OTMpVbjH_fade{0%{stroke-opacity:1;}93.54838709677419%{stroke-opacity:1;}100%{stroke-opacity:0;}}</style></svg>
