<svg xmlns="http://www.w3.org/2000/svg" viewBox="0 0 1363.12 1027.73"><defs><style>.cls-1{fill:none;stroke:#F6F7F7;stroke-miterlimit:10;stroke-width:2.5px;}</style></defs><title>Asset 1</title><g id="Layer_2" data-name="Layer 2"><g id="Layer_1-2" data-name="Layer 1"><g id="Group_208" data-name="Group 208"><line id="Line_31" data-name="Line 31" class="cls-1" x1="25.15" y1="798.93" x2="1362.49" y2="27.36"/><line id="Line_32" data-name="Line 32" class="cls-1" x1="25.15" y1="807.69" x2="1362.49" y2="36.11"/><line id="Line_33" data-name="Line 33" class="cls-1" x1="25.15" y1="816.45" x2="1362.49" y2="44.87"/><line id="Line_34" data-name="Line 34" class="cls-1" x1="25.15" y1="825.21" x2="1362.49" y2="53.63"/><line id="Line_35" data-name="Line 35" class="cls-1" x1="25.15" y1="833.97" x2="1362.49" y2="62.39"/><line id="Line_36" data-name="Line 36" class="cls-1" x1="25.15" y1="842.72" x2="1362.49" y2="71.15"/><line id="Line_37" data-name="Line 37" class="cls-1" x1="25.15" y1="851.48" x2="1362.49" y2="79.9"/><line id="Line_38" data-name="Line 38" class="cls-1" x1="25.15" y1="790.18" x2="1362.49" y2="18.6"/><line id="Line_39" data-name="Line 39" class="cls-1" x1="25.15" y1="781.42" x2="1362.49" y2="9.84"/><line id="Line_40" data-name="Line 40" class="cls-1" x1="637.16" y1="419.56" x2="1362.49" y2="1.08"/><line id="Line_40-2" data-name="Line 40" class="cls-1" x1="25.15" y1="772.66" x2="637.16" y2="419.56"/><line id="Line_41" data-name="Line 41" class="cls-1" x1="25.15" y1="886.51" x2="1362.49" y2="114.94"/><line id="Line_42" data-name="Line 42" class="cls-1" x1="25.15" y1="895.27" x2="1362.49" y2="123.69"/><line id="Line_43" data-name="Line 43" class="cls-1" x1="25.15" y1="904.03" x2="1362.49" y2="132.45"/><line id="Line_44" data-name="Line 44" class="cls-1" x1="25.15" y1="912.79" x2="1362.49" y2="141.21"/><line id="Line_45" data-name="Line 45" class="cls-1" x1="25.15" y1="921.55" x2="1362.49" y2="149.97"/><line id="Line_46" data-name="Line 46" class="cls-1" x1="25.15" y1="930.3" x2="1362.49" y2="158.73"/><line id="Line_47" data-name="Line 47" class="cls-1" x1="25.15" y1="939.06" x2="1362.49" y2="167.48"/><line id="Line_48" data-name="Line 48" class="cls-1" x1="25.15" y1="877.76" x2="1362.49" y2="106.18"/><line id="Line_49" data-name="Line 49" class="cls-1" x1="25.15" y1="869" x2="1362.49" y2="97.42"/><line id="Line_50" data-name="Line 50" class="cls-1" x1="25.15" y1="860.24" x2="1362.49" y2="88.66"/><line id="Line_51" data-name="Line 51" class="cls-1" x1="25.15" y1="974.09" x2="1362.49" y2="202.52"/><line id="Line_52" data-name="Line 52" class="cls-1" x1="25.15" y1="982.85" x2="1362.49" y2="211.27"/><line id="Line_53" data-name="Line 53" class="cls-1" x1="25.15" y1="991.61" x2="1362.49" y2="220.03"/><line id="Line_54" data-name="Line 54" class="cls-1" x1="25.15" y1="1000.37" x2="1362.49" y2="228.79"/><line id="Line_55" data-name="Line 55" class="cls-1" x1="25.15" y1="1009.13" x2="1362.49" y2="237.55"/><line id="Line_56" data-name="Line 56" class="cls-1" x1="25.15" y1="1017.88" x2="1362.49" y2="246.31"/><line id="Line_57" data-name="Line 57" class="cls-1" x1="637.16" y1="673.54" x2="1362.49" y2="255.06"/><line id="Line_57-2" data-name="Line 57" class="cls-1" x1="25.15" y1="1026.64" x2="637.16" y2="673.54"/><line id="Line_58" data-name="Line 58" class="cls-1" x1="25.15" y1="965.34" x2="1362.49" y2="193.76"/><line id="Line_59" data-name="Line 59" class="cls-1" x1="25.15" y1="956.58" x2="1362.49" y2="185"/><line id="Line_60" data-name="Line 60" class="cls-1" x1="25.15" y1="947.82" x2="1362.49" y2="176.24"/></g><line id="Line_61" data-name="Line 61" class="cls-1" x1="366.13" y1="575.68" x2="7.05" y2="423.29"/><line id="Line_61-2" data-name="Line 61" class="cls-1" x1="359.57" y1="579.41" x2="0.49" y2="427.02"/></g></g></svg>
