<svg xmlns="http://www.w3.org/2000/svg" viewBox="0 0 119.06 119.06"><defs><style>.cls-1{fill:#778592;}.cls-2{fill:#f15a22;}</style></defs><title>Asset 1</title><g id="Layer_2" data-name="Layer 2"><g id="Layer_1-2" data-name="Layer 1"><path class="cls-1" d="M109.45,48V46.09h-3.84V48h-1.92a19.14,19.14,0,0,0-11.52-7.27V24.17L68,0H0V119.06H92.17V78.32a19.14,19.14,0,0,0,11.52-7.27h1.92V73h3.84V71.05h9.61V48ZM69.13,6.56,85.62,23H69.13ZM3.84,115.22V3.84H65.29V26.89h23V40.33a19.21,19.21,0,0,0-17,10.22,26.49,26.49,0,0,0-1.65-3.79l4.88-4.88L63.74,31,58.85,35.9a26.19,26.19,0,0,0-5.08-2.11V26.88H38.4v6.91a26.19,26.19,0,0,0-5.08,2.11L28.43,31,17.57,41.88l4.88,4.88a27.31,27.31,0,0,0-2.11,5.09h-6.9V67.21h6.9a26.92,26.92,0,0,0,2.11,5.09l-4.88,4.88L28.43,88l4.89-4.88a26.83,26.83,0,0,0,5.08,2.11v6.9H53.77v-6.9a26.19,26.19,0,0,0,5.08-2.11L63.74,88,74.6,77.18,69.72,72.3a27.79,27.79,0,0,0,1.65-3.8,19.19,19.19,0,0,0,17,10.23v36.49ZM48.39,50.7l-6.62,8.83,6.62,8.83,3.07-2.3L48,61.45h9.43a11.52,11.52,0,1,1,0-3.84H48L51.46,53Zm-2.31-6.53A15.36,15.36,0,1,0,61.32,61.45h7.91a17.42,17.42,0,0,0,.29,1.92h-.68l-.35,1.48a23,23,0,0,1-2.81,6.76l-.8,1.29,4.29,4.28-5.43,5.43-4.29-4.28-1.29.8a23.19,23.19,0,0,1-6.75,2.8l-1.48.35v6H42.25v-6l-1.48-.35A23.14,23.14,0,0,1,34,79.13l-1.29-.8-4.28,4.28L23,77.18l4.29-4.28-.8-1.3a23,23,0,0,1-2.81-6.75l-.34-1.48H17.28V55.69h6.06l.35-1.48a22.71,22.71,0,0,1,2.8-6.76l.8-1.29L23,41.88l5.43-5.43,4.28,4.28,1.29-.8a23,23,0,0,1,6.76-2.8l1.48-.35V30.73h7.68v6.05l1.48.35a22.92,22.92,0,0,1,6.75,2.8l1.29.8,4.29-4.28,5.43,5.43-4.28,4.28.79,1.3a22.68,22.68,0,0,1,2.81,6.75l.35,1.48h.68a17.42,17.42,0,0,0-.29,1.92H61.31A15.37,15.37,0,0,0,46.08,44.17Zm59.53,13.44H93.74a5.76,5.76,0,1,0,0,3.84h11.87v5.76h-3.93l-.57.85a15.36,15.36,0,1,1,0-17.07l.58.86h3.93v5.76ZM90.25,59.53a1.92,1.92,0,1,1-1.92-1.92A1.92,1.92,0,0,1,90.25,59.53Zm25,7.68h-5.77V51.85h5.77Z"/><rect class="cls-1" x="96.01" y="34.57" width="11.52" height="3.84"/><rect class="cls-1" x="111.37" y="34.57" width="3.84" height="3.84"/><rect class="cls-1" x="99.85" y="26.89" width="11.52" height="3.84"/><rect class="cls-1" x="115.21" y="26.89" width="3.84" height="3.84"/><rect class="cls-1" x="96.01" y="80.65" width="11.52" height="3.84"/><rect class="cls-1" x="111.37" y="80.65" width="3.84" height="3.84"/><rect class="cls-1" x="99.85" y="88.33" width="11.52" height="3.84"/><rect class="cls-1" x="115.21" y="88.33" width="3.84" height="3.84"/><rect class="cls-1" x="80.65" y="107.54" width="3.84" height="3.84"/><rect class="cls-1" x="72.97" y="107.54" width="3.84" height="3.84"/><rect class="cls-1" x="65.29" y="107.54" width="3.84" height="3.84"/><rect class="cls-1" x="7.68" y="7.68" width="3.84" height="3.84"/><rect class="cls-1" x="15.36" y="7.68" width="3.84" height="3.84"/><rect class="cls-1" x="23.04" y="7.68" width="3.84" height="3.84"/><path class="cls-2" d="M46.09,44.17h0a15.36,15.36,0,0,0,0,30.72h0a15.36,15.36,0,0,0,0-30.72Zm0,26.88h0a11.52,11.52,0,0,1,0-23h0a11.52,11.52,0,0,1,0,23Z"/><path class="cls-2" d="M71.83,67.21h3.28a14.75,14.75,0,0,1-1.59-3.84H68.84l-.35,1.48a22.57,22.57,0,0,1-2.81,6.75l-.79,1.3,4.28,4.28-5.43,5.43-4.29-4.28-1.29.8a22.87,22.87,0,0,1-6.76,2.8l-1.47.35v6H42.25v-6l-1.48-.35A23.14,23.14,0,0,1,34,79.13l-1.29-.8-4.28,4.28L23,77.18l4.29-4.28-.8-1.3a23,23,0,0,1-2.81-6.75l-.34-1.48H17.28V55.69h6.06l.35-1.48a23,23,0,0,1,2.8-6.76l.8-1.29L23,41.88l5.43-5.43,4.28,4.28,1.3-.8a22.92,22.92,0,0,1,6.75-2.8l1.48-.35V30.73h7.68v6.05l1.48.35a23.08,23.08,0,0,1,6.75,2.8l1.3.8,4.28-4.28,5.43,5.43-4.28,4.28.8,1.3a22.81,22.81,0,0,1,2.8,6.75l.35,1.48h4.68a14.75,14.75,0,0,1,1.59-3.84H71.83a26.92,26.92,0,0,0-2.11-5.09l4.88-4.88L63.74,31,58.86,35.9a26.54,26.54,0,0,0-5.09-2.11v-6.9H38.41v6.9a26,26,0,0,0-5.09,2.11L28.44,31,17.57,41.88l4.89,4.88a26.28,26.28,0,0,0-2.11,5.09H13.44V67.21h6.9a27,27,0,0,0,2.12,5.09l-4.89,4.88L28.44,88l4.88-4.88a26.65,26.65,0,0,0,5.09,2.11v6.9H53.77v-6.9a26.54,26.54,0,0,0,5.09-2.11L63.74,88,74.6,77.18,69.72,72.3A27.19,27.19,0,0,0,71.83,67.21Z"/><path class="cls-1" d="M88.33,40.33a19.21,19.21,0,0,0-17,10.22,37,37,0,0,0-1.86,5.14c-.12.63-.22,1.27-.29,1.92H48L51.46,53l-3.07-2.31-6.63,8.84,6.63,8.83,3.07-2.3L48,61.45H69.22c.07.65.17,1.29.29,1.92a22.82,22.82,0,0,0,1.86,5.13,19.19,19.19,0,0,0,17,10.23,21.38,21.38,0,0,0,3.84-.41,19.18,19.18,0,0,0,11.52-7.27h1.92V73h3.84V71.05h9.61V48h-9.61V46.09h-3.84V48h-1.92a19.14,19.14,0,0,0-11.52-7.27A28,28,0,0,0,88.33,40.33Zm17.28,17.28H93.74a5.76,5.76,0,1,0,0,3.84h11.87v5.76h-3.93l-.57.85a15.36,15.36,0,1,1,0-17.07l.58.86h3.93v5.76ZM90.25,59.53a1.92,1.92,0,1,1-1.92-1.92A1.92,1.92,0,0,1,90.25,59.53Zm25,7.68h-5.77V51.85h5.77Z"/></g></g></svg>