<svg xmlns="http://www.w3.org/2000/svg" viewBox="0 0 119.05 119.06"><defs><style>.cls-1{fill:#778592;}.cls-2{fill:#f15a22;}</style></defs><title>Asset 1</title><g id="Layer_2" data-name="Layer 2"><g id="Layer_1-2" data-name="Layer 1"><path class="cls-1" d="M103.69,80.65h-2.6a17.22,17.22,0,0,0,6.44-13.44V59.53A13.46,13.46,0,0,0,94.09,46.09H86.41a13.56,13.56,0,0,0-1.92.15V11.52h3.84V0H0V11.52H3.84V67.21H0V78.73H44.9l9.6,19.2H73v21.13h46.08V96A15.37,15.37,0,0,0,103.69,80.65Zm-2.26,8.48-7.79,3.34,5.32-8h1.31ZM86.16,84.49h8.19l-4.1,6.14Zm.7,8-7.79-3.34,1.16-4.64h1.31Zm16.83-25.26a13.44,13.44,0,1,1-26.88,0h9a12.58,12.58,0,0,0,9-3.72l1-1A12.6,12.6,0,0,0,103.69,67v.17ZM11.52,46.09V63.37H37.25c0,.07,0,.14.07.2l1.82,3.64H7.68V11.52h73V47.4A13.45,13.45,0,0,0,73,59.53v7.68H57.35L51.4,56a7.88,7.88,0,0,0-13-1.38V46.09Zm23,3.84v9.6H15.36v-9.6Zm51.85,0h7.68a9.6,9.6,0,0,1,9.6,9.6v3.62a8.81,8.81,0,0,1-5.43-3.72l-2-2.92L92,60.78a8.78,8.78,0,0,1-6.25,2.59h-9V59.53A9.61,9.61,0,0,1,86.41,49.93ZM3.84,3.84H84.49V7.68H3.84Zm0,71.05V71.05H41.06L43,74.89Zm57.61,19.2H56.87L40.76,61.86A4,4,0,0,1,40.32,60v-.26A4.09,4.09,0,0,1,48,57.85l13.44,25.2v11Zm-2.05-23h14a17.39,17.39,0,0,0,1.38,3.84H61.45Zm4.1,7.68H77.41a17.27,17.27,0,0,0,2,1.92H64.52Zm51.71,36.49h-7.68v-7.69h7.68Zm0-11.53h-7.68V96h-3.84v19.21H76.81V94.09H65.29v-9.6h11l-1.72,6.88,15.7,6.73L106,91.37l-1.71-6.85a11.52,11.52,0,0,1,11,11.49v7.68Z"/><path class="cls-2" d="M38.4,30.72V26.88h-4A9.46,9.46,0,0,0,33,23.52l2.87-2.86-2.72-2.72L30.25,20.8a9.49,9.49,0,0,0-3.37-1.4v-4H23v4a9.44,9.44,0,0,0-3.36,1.4l-2.86-2.86L14.1,20.66,17,23.52a9.44,9.44,0,0,0-1.4,3.36h-4v3.84h4A9.49,9.49,0,0,0,17,34.09L14.1,37l2.72,2.72,2.86-2.86A9.62,9.62,0,0,0,23,38.21v4h3.84v-4a9.67,9.67,0,0,0,3.37-1.4l2.86,2.86L35.83,37,33,34.09a9.51,9.51,0,0,0,1.41-3.37ZM25,34.56a5.76,5.76,0,1,1,5.76-5.76A5.77,5.77,0,0,1,25,34.56Z"/><polygon class="cls-2" points="58.63 19.2 65.29 19.2 65.29 15.36 56.58 15.36 48.9 26.88 42.24 26.88 42.24 30.73 50.95 30.73 58.63 19.2"/><rect class="cls-2" x="69.13" y="15.36" width="7.68" height="3.84"/><path class="cls-2" d="M53.77,34.56H42.24V46.09H53.77Zm-3.84,7.69H46.08V38.4h3.85Z"/><rect class="cls-2" x="57.61" y="38.41" width="7.68" height="3.84"/><rect class="cls-2" x="69.13" y="38.41" width="7.68" height="3.84"/></g></g></svg>