<svg xmlns="http://www.w3.org/2000/svg" viewBox="0 0 119.06 117.14"><defs><style>.cls-1{fill:#778592;}.cls-2{fill:#f15a22;}</style></defs><title>Asset 1</title><g id="Layer_2" data-name="Layer 2"><g id="Layer_1-2" data-name="Layer 1"><path class="cls-1" d="M27.05,61.45a5.61,5.61,0,0,0-4.8,2.72L19.36,69l-.16-.3V62.75l6.24-2.5a5.33,5.33,0,0,0-3.68-10l-.68.22.78-1.55a11.36,11.36,0,0,0,1.18-5,5.48,5.48,0,0,0-10.38-2.45L7.88,51l-4,19.68L3.84,96l1.51,7.69H0v13.44H28.8V103.7H23V90.84l3.52-5.28,5.23-13.8a13.35,13.35,0,0,0,.86-4.71A5.62,5.62,0,0,0,27.05,61.45ZM23,53.87a1.48,1.48,0,0,1,1.35.21A1.47,1.47,0,0,1,25,55.3,1.5,1.5,0,0,1,24,56.69L19.2,58.61V55.15Zm2,53.67v5.76H3.84v-5.76ZM28.2,70.4,23.25,83.61,19.2,89.67v14H9.26L7.68,95.82V71.24l3.75-18.76,4.67-9.32a1.6,1.6,0,0,1,1.46-.91,1.63,1.63,0,0,1,1.64,1.64,7.49,7.49,0,0,1-.78,3.31l-3.06,6.12V69.59L19.05,77l6.49-10.82a1.76,1.76,0,0,1,3.26.91A9.54,9.54,0,0,1,28.2,70.4Z"/><path class="cls-1" d="M113.72,103.7l1.46-7.31,0-25.34-3.87-19.58-5-10A5.48,5.48,0,0,0,96,43.89a11.23,11.23,0,0,0,1.19,5L98,50.46l-.67-.23a5.34,5.34,0,0,0-3.69,10l6.24,2.5v5.93l-.15.3-2.89-4.81a5.6,5.6,0,0,0-10.4,2.88,13.47,13.47,0,0,0,.85,4.7l5,13.42L96,90.83v12.86H90.25v13.45h28.81V103.69ZM95,56.68a1.49,1.49,0,0,1-.94-1.39,1.46,1.46,0,0,1,.63-1.21,1.48,1.48,0,0,1,1.35-.21l3.78,1.28v3.46Zm.78,26.93-5-13.2a9.65,9.65,0,0,1-.61-3.36A1.76,1.76,0,0,1,92,65.29a1.79,1.79,0,0,1,1.51.85L100,77l3.68-7.38V53.31l-3.06-6.11a7.49,7.49,0,0,1-.78-3.31,1.64,1.64,0,0,1,1.64-1.64,1.62,1.62,0,0,1,1.47.9l4.66,9.33,3.75,18.76V95.83l-1.57,7.86h-10v-14Zm19.41,29.69H94.09v-5.76h21.13Z"/><path class="cls-2" d="M83.8,34.57h4.53V23H83.8a24.49,24.49,0,0,0-3-7.32L84,12.51,75.82,4.37l-3.2,3.2a24.68,24.68,0,0,0-7.33-3V0H53.77V4.53a24.57,24.57,0,0,0-7.33,3L43.23,4.36l-8.14,8.15,3.2,3.2a24.65,24.65,0,0,0-3,7.33H30.72V34.56h4.54a24.29,24.29,0,0,0,3,7.33l-3.2,3.21,8.14,8.14,2.94-2.94a5.35,5.35,0,0,0-.06.59,4.83,4.83,0,0,0,2.25,4,4.77,4.77,0,0,0,4.48,6.51H66.28a4.77,4.77,0,0,0,4.47-6.51,4.79,4.79,0,0,0,2.25-4,4.36,4.36,0,0,0,0-.52l2.87,2.87L84,45.1l-3.2-3.21A24.86,24.86,0,0,0,83.8,34.57Zm-17.52,23H52.84a1,1,0,1,1,0-1.92H66.28a1,1,0,1,1,0,1.92Zm1.92-5.76H50.92a1,1,0,0,1,0-1.92H68.2a1,1,0,1,1,0,1.92ZM61.48,34.21a5.76,5.76,0,1,0-3.84,0V46.09H53.8V41l-1-.56a13.44,13.44,0,1,1,13.44,0l-1,.56v5.1H61.48Zm-1.92-3.48a1.93,1.93,0,1,1,1.92-1.93A1.92,1.92,0,0,1,59.56,30.73Zm20.77,1.6a20.8,20.8,0,0,1-3.6,8.7l-.94,1.32,2.75,2.75-2.72,2.71-2.75-2.75L71.75,46a13.46,13.46,0,0,1-1.15.74,4.76,4.76,0,0,0-1.44-.57v-3a17.28,17.28,0,1,0-19.2,0v3a4.88,4.88,0,0,0-1.48.59c-.42-.25-.81-.51-1.17-.76L46,45.06l-2.75,2.75L40.52,45.1l2.75-2.75L42.33,41a20.75,20.75,0,0,1-3.6-8.7l-.28-1.6H34.56V26.88h3.89l.27-1.6a21.07,21.07,0,0,1,3.6-8.7l.94-1.32-2.74-2.75L43.23,9.8,46,12.54l1.32-.94A20.92,20.92,0,0,1,56,8l1.6-.27V3.84h3.84V7.73l1.6.27a20.69,20.69,0,0,1,8.7,3.6l1.32.94,2.75-2.75,2.72,2.72-2.75,2.75.94,1.32a20.69,20.69,0,0,1,3.6,8.7l.27,1.6h3.89v3.85H80.6Z"/><rect class="cls-1" x="57.61" y="65.29" width="3.84" height="3.84"/><rect class="cls-1" x="57.61" y="72.97" width="3.84" height="3.84"/><rect class="cls-1" x="57.61" y="80.65" width="3.84" height="3.84"/><rect class="cls-1" x="57.61" y="88.33" width="3.84" height="3.84"/></g></g></svg>