<svg xmlns="http://www.w3.org/2000/svg" viewBox="0 0 841.92 175.97"><defs><style>.cls-1{fill:#000d71;}</style></defs><title>Asset 1</title><g id="Layer_2" data-name="Layer 2"><g id="Laag_1" data-name="Laag 1"><path class="cls-1" d="M694.65,88l-5.41,15a15.23,15.23,0,0,1-14.31,10h-48a25.07,25.07,0,0,1-25-25.09c0-.22,0-.44,0-.66.4-13.66,11.93-24.35,25.56-24.35h38.62a13.19,13.19,0,0,0,12.54-9.06l6.26-17.33h-58a51.52,51.52,0,0,0-51.5,51.53V89c.54,28.17,24.14,50.46,52.32,50.46H675.9L662.79,176h19a13.23,13.23,0,0,0,12.09-8.69L722.58,88H694.65Z"/><path class="cls-1" d="M789.81,36.53H741.19l3.72-10.15L754.37,0H735.31a13.27,13.27,0,0,0-12.1,8.69L703.67,62.92h86.8A25.06,25.06,0,0,1,815.5,88c0,.24,0,.48,0,.72-.4,13.61-11.93,24.27-25.55,24.27h-38.8A13.18,13.18,0,0,0,738.6,122l-6.26,17.37h58.13a51.51,51.51,0,0,0,51.45-51.57v-.4C841.64,59.14,818.13,36.53,789.81,36.53Z"/><path class="cls-1" d="M13.22,110.45a24.75,24.75,0,0,1-9.69-9.19,26.78,26.78,0,0,1,0-26.59,24.75,24.75,0,0,1,9.69-9.19,28.84,28.84,0,0,1,13.86-3.32,29.18,29.18,0,0,1,11.74,2.28A23.6,23.6,0,0,1,47.64,71l-7.41,6.85A16,16,0,0,0,27.68,72a16.72,16.72,0,0,0-8.27,2,14.49,14.49,0,0,0-5.66,5.67,17.82,17.82,0,0,0,0,16.53,14.53,14.53,0,0,0,5.66,5.66,16.72,16.72,0,0,0,8.27,2,15.86,15.86,0,0,0,12.55-5.91l7.41,6.84a23.07,23.07,0,0,1-8.83,6.62A29.37,29.37,0,0,1,27,113.8,28.69,28.69,0,0,1,13.22,110.45ZM118.17,63v49.9H106.59V92.47H84v20.46H72.42V63H84V82.7h22.62V63Zm61.7,39.2H156.7l-4.45,10.69h-11.8L162.7,63h11.4l22.33,49.9H184.28Zm-3.64-8.77-7.91-19.1-7.95,19.1ZM218.6,63h11.55v49.9H218.6Zm85.2,0v49.9h-9.47l-24.9-30.3v30.29H258V63h9.55l24.81,30.33V63Zm37.62,9.41h-16V63h43.49v9.41H353v40.49H341.42V72.44ZM393.88,63h11.55v49.9H393.88Zm69.61,2.2a16.54,16.54,0,0,1,10.16,15.9A17.38,17.38,0,0,1,471,90.72,16.85,16.85,0,0,1,463.49,97,28.2,28.2,0,0,1,452,99.16H441.93v13.76H430.38V63H452A27.63,27.63,0,0,1,463.49,65.23Zm-4.24,22.33A7.82,7.82,0,0,0,462,81.18a7.91,7.91,0,0,0-2.71-6.46q-2.72-2.23-7.92-2.24h-9.41V89.76h9.41q5.21,0,7.92-2.25Z"/></g></g></svg>